<?xml version="1.0" encoding="utf-8"?>
<!-- Generator: Adobe Illustrator 22.1.0, SVG Export Plug-In . SVG Version: 6.00 Build 0)  -->
<svg version="1.1" id="图层_1" xmlns="http://www.w3.org/2000/svg" xmlns:xlink="http://www.w3.org/1999/xlink" x="0px" y="0px"
	 viewBox="0 0 706.9 130.2" style="enable-background:new 0 0 706.9 130.2;" xml:space="preserve">
<style type="text/css">
	.st0{fill:#FFFFFF;}
	.st1{fill-rule:evenodd;clip-rule:evenodd;fill:#FFFFFF;}
</style>
<g>
	<path class="st0" d="M214.2,92.6V46.4h47.6v38.7c0.2,5.1-2.5,7.6-7.8,7.5H214.2L214.2,92.6z M221.4,88.6h29.5c2.7,0,4-1.2,3.8-3.6
		v-34h-33.3V88.6L221.4,88.6z M223.8,59.5v-4.3H252v4.3h-11v6.4h9.8v4.3h-9.8v9.4h11.6v4.3h-29.5v-4.3h10.7v-9.4h-9.2v-4.3h9.2v-6.4
		H223.8L223.8,59.5z M245.5,78.3c-0.4-2.3-1.1-4.5-2-6.6h4.7c1.2,1.9,2,4.1,2.5,6.6H245.5z"/>
	<path class="st0" d="M287.6,92.4V75.1h31.8v10.3c0.2,4.8-2.3,7.2-7.4,7.1H287.6L287.6,92.4z M275.3,93.7V62
		c-1.5,0.8-3.3,1.6-5.4,2.4v-4.3c4.8-3.3,7.7-8.4,8.9-15.4h6.9c-1.2,4.9-2.5,8.4-4,10.7v38.3H275.3L275.3,93.7z M285.4,53.2v-4.5
		h14.3v-4.1h7.8v4.1h14.5v4.5H285.4L285.4,53.2z M294.3,88.3h15.4c1.9,0,2.9-1,2.9-3v-5.8h-18.3V88.3L294.3,88.3z M287.6,61.8v-4.3
		h31.8v4.3H287.6L287.6,61.8z M287.6,70.4v-4.3h31.8v4.3H287.6z"/>
	<path class="st0" d="M344.9,57.5v-4.7h12.7v-7.9h7.4v7.9h13.2v4.7H365c0.4,9.7,5.2,17.2,14.3,22.5v4.5c-8.3-3.3-14.3-8.1-17.9-14.6
		c-3.6,6.8-9.6,11.7-18.1,14.6V80c9.5-5,14.3-12.5,14.3-22.5H344.9L344.9,57.5z M328.8,93.5v-3.9c3.7-1.1,5.5-3.4,5.4-6.8V65h-5.6
		v-4.5h12.5v20.3c0.1,4.8,2.8,7.3,7.8,7.5H380v4.1h-31.8c-4.6,0-7.9-1.3-9.8-3.9C336.6,91.1,333.4,92.8,328.8,93.5L328.8,93.5z
		 M335.5,56.2c-0.6-3.1-1.8-6.7-3.6-10.7h6.3c1.6,3,3,6.6,4,10.7H335.5z"/>
	<path class="st0" d="M167.6,54.1h-5v34.6h5C179.8,88.7,180.4,54.1,167.6,54.1L167.6,54.1z M191.7,91.5c-6.7,5.6-14.7,8.3-24.1,8.3
		c0,0-17.5,0-18,0c-1.8-0.6-7.1-4.3-8.4-5.9c0-0.6,0-50.8,0-50.8h26.4c9.4,0,17.4,2.8,24.1,8.3C205,62.4,205,80.5,191.7,91.5z"/>
	<path class="st0" d="M73.1,99.8h25.2l6.3-10C99.2,85,94,79.9,89.2,74.5L73.1,99.8L73.1,99.8z M115.1,73.2l1.6-2.5l17.6-27.6H109
		L100.9,56c1.7,2.5,3.5,4.9,5.3,7.1C109,66.6,112,70,115.1,73.2z"/>
	<path class="st0" d="M68.2,99.8H34.1c-9.4,0-17.4-2.8-24.1-8.3c-13.3-11-13.3-29.1,0-40.1c6.7-5.5,14.7-8.3,24.1-8.3h34.2v11.1
		H34.1c-12.6,0-12.6,34.6,0,34.6h11.7V78.4c0-0.9-0.8-1.4-2.5-1.4h-10V65.9h21.7c7,0,13.3,2.3,13.3,10V99.8z"/>
	<path class="st1" d="M194.6,130.2c20.1,0,28.4-11.7,24.4-29.4c0.6,12-6.7,19.5-21.6,19.5c-27,0-68.9-24.8-93.5-55.5
		C79.4,34.2,81.3,9.4,108.4,9.4c14.2,0,32.6,6.9,50.4,17.9C135.1,10.8,109.4,0,90.1,0c-31.7,0-34,29.2-5.2,65.1
		C113.7,101.1,162.9,130.2,194.6,130.2z"/>
	<path class="st1" d="M176.1,31.1c-5.8-1.5-15.8,1.2-19,8.9c2.2-8-4-16.3-9.6-18.7c5.8,1.5,15.8-1.2,19-8.9
		C164.3,20.5,170.5,28.8,176.1,31.1z"/>
	<path class="st1" d="M197.5,30.3c-4.3-1.1-11.7,0.9-14.1,6.6c1.6-5.9-3-12.1-7.1-13.8c4.3,1.1,11.7-0.9,14.1-6.6
		C188.8,22.4,193.4,28.6,197.5,30.3z"/>
	<path class="st1" d="M186.2,12.2c-3.3-0.9-9,0.7-10.8,5.1c1.2-4.6-2.3-9.3-5.5-10.6c3.3,0.9,9-0.7,10.8-5.1
		C179.6,6.1,183.1,10.8,186.2,12.2z"/>
	<path class="st0" d="M407.6,50.1l-0.2-0.3h-5.9l0.7,1.1c0.9,1.4,1.6,2.8,2.1,4.1c-2.8,0.3-6,0.4-9.6,0.5c2.8-2.5,5.4-5.7,7.7-9.7
		l0.6-1.1h-7.6l-0.2,0.4c-2.1,4.1-4.9,7.6-8.4,10.6l-0.3,0.2v4.7h0.7c8.6,0,14.8-0.3,18.6-0.9c0.2,0.6,0.3,1.2,0.4,1.9l0.1,0.6h6.4
		l-0.2-0.9C411.7,57.6,410.1,53.8,407.6,50.1z"/>
	<path class="st0" d="M388.4,92.7h6.3v-9.3h8.9l0,2.8c0,0.5,0,0.9-0.3,1.1c-0.3,0.3-0.8,0.4-1.7,0.3h-3.2v4.9l4.4,0
		c2.5,0.1,4.3-0.5,5.5-1.7c1.1-1.1,1.6-2.7,1.5-4.7V62.8h-21.6V92.7z M394.7,70.9v-3.4h8.9v3.4H394.7z M403.6,75.4v3.4h-8.9v-3.4
		H403.6z"/>
	<path class="st0" d="M419.3,81c7.5-1.2,12.4-4.7,14.6-10.3l0.4-1h-6.4l-0.2,0.4c-1.5,3-4.4,5-8.4,6.1v-8.5H413v18
		c-0.1,2.2,0.4,3.8,1.5,4.9c1.1,1.1,2.7,1.6,4.9,1.5l8.1,0c0.1,0,0.3,0,0.4,0c2.1,0,3.7-0.5,4.8-1.6c1-1,1.5-2.5,1.4-4.4v-3h-5.3
		l0,2.4c0,0.5,0,0.9-0.3,1.1c-0.3,0.3-0.8,0.4-1.7,0.3l-5.3,0c-1,0.1-1.6-0.1-2-0.4c-0.3-0.3-0.4-0.7-0.3-1.3V81z"/>
	<path class="st0" d="M419.4,67.1l7.9,0c0.2,0,0.3,0,0.5,0c2.3,0,4-0.6,5.1-1.7c1-1.1,1.5-2.6,1.3-4.5v-3h-5.3l0,2.2
		c0.1,0.8-0.1,1.4-0.4,1.7c-0.3,0.3-0.8,0.4-1.5,0.4h-5.5c-1.5,0-2.1-0.6-2.1-2.1v-2.6c7.5-1.1,12.3-4.3,14.4-9.7l0.4-1h-6.4
		l-0.2,0.4c-1.3,2.6-4,4.4-8.2,5.5v-7.7H413v15.5c-0.1,2.3,0.5,4,1.6,5.1C415.6,66.6,417.3,67.1,419.4,67.1z"/>
	<path class="st0" d="M466.4,44.9H459V52h-14.8v5.3H459c-0.2,13.7-5.5,23.9-15.9,30.4l-0.3,0.2v5.7l1.1-0.6
		c14.7-7.7,22.2-19.7,22.3-35.7h14.6l0,25.9c0.1,1.1-0.2,1.9-0.7,2.4c-0.6,0.6-1.5,0.9-2.9,0.9H472v5.1h6.6c3.3,0.1,5.7-0.7,7.3-2.3
		c1.5-1.5,2.2-3.7,2.1-6.6V52h-21.7V44.9z"/>
	<path class="st0" d="M535.3,52.8h8.3v-5.1h-44.3v5.1h8.7v12.8h-11.2v5.3H508c-0.1,7.8-3.1,13.5-9.2,17.4l-0.3,0.2v5.2l1-0.5
		c10.4-4.7,15.7-12.2,15.7-22.3h13v22h7.1v-22h10v-5.3h-10V52.8z M528.1,52.8v12.8h-13V52.8H528.1z"/>
	<path class="st0" d="M591.9,80c3.8-5.2,6.1-13.1,6.7-23.7h3.3v-5.1h-14.5c0.6-1.6,1-3.4,1.3-5.5l0.1-0.8h-6.5l-0.1,0.6
		c-0.8,5.6-3.1,10.4-6.9,14.2l-0.2,0.2v1.2h-10.3v-6.3h13V50h-8.5v-4.9h-6.9V50h-8.7v4.9h4.9v7.2c0,7-0.3,12.3-1,15.7
		c-0.7,3.4-2,6.7-4,9.7l-0.1,0.2v5.9l1.1-0.8c6.8-4.9,10.3-13.9,10.3-26.7h4.2v18.4c0,1-0.3,2.1-2.5,2.1H563v4.9l5,0
		c2.5,0.1,4.3-0.5,5.6-1.7c0.2-0.2,0.5-0.5,0.6-0.8v4.6l1-0.5c5.6-2.7,9.9-5.6,12.9-8.6c3.1,3,7.4,5.9,12.9,8.6l1,0.5v-5.2l-0.4-0.2
		C597.4,85.6,594.1,82.8,591.9,80z M592,56.3c-0.3,7.4-1.6,13.4-3.9,18c-1.7-3.6-3.1-8.5-4.2-14.6l-0.1-0.6h-1
		c0.8-0.9,1.6-1.8,2.2-2.8H592z M575.2,84.4V64.7l0.9-0.5c0.7-0.4,1.4-0.9,2-1.3c1.6,7.3,3.7,13,6.5,17.1c-2.5,2.9-5.8,5.6-9.9,8.1
		C575.1,87,575.3,85.8,575.2,84.4z"/>
	<path class="st0" d="M642.9,67l-0.5,1h6.5l0.2-0.4c1.9-3.4,3.3-7.4,4.1-11.8l0.2-0.9h-7l-0.1,0.6C645.6,59.9,644.5,63.7,642.9,67z"
		/>
	<path class="st0" d="M619.6,68.1h6.5l-0.6-1.1c-1.7-3.3-2.9-7.1-3.4-11.3L622,55h-7l0.2,0.9c1,4.9,2.4,8.9,4.2,11.8L619.6,68.1z"/>
	<polygon class="st0" points="636.1,52.1 654.6,52.1 654.6,46.8 610.6,46.8 610.6,52.1 628.9,52.1 628.9,71.2 608.4,71.2 
		608.4,76.3 628.9,76.3 628.9,93.2 636.1,93.2 636.1,76.3 656.6,76.3 656.6,71.2 636.1,71.2 	"/>
	<path class="st0" d="M665.6,91.5l30,0c0.1,0,0.3,0,0.4,0c2.5,0,4.4-0.6,5.7-1.9c1.2-1.2,1.8-3,1.7-5.3V69.5h-37.8V91.5z
		 M696.5,84.1c0.1,0.8-0.1,1.5-0.5,1.9c-0.4,0.4-1.1,0.6-2.1,0.6h-21.4v-12h24L696.5,84.1z"/>
	<path class="st0" d="M698.9,64.3c0.3,1,0.7,2,1,2.9l0.2,0.5h6.8l-0.3-0.9c-1.6-5-4.1-10.1-7.2-15l-0.2-0.3h-6.5l0.6,1.1
		c1.4,2.5,2.6,4.8,3.6,7c-6.7,0.7-15.2,0.9-25.4,0.7c4.5-3.5,8.6-8.3,12.3-14.2l0.7-1.1H676l-0.2,0.4c-3.2,6-7.4,11-12.6,15
		l-0.3,0.2v5.3h5.6C680.4,65.8,690.6,65.3,698.9,64.3z"/>
</g>
</svg>
