<?xml version="1.0" standalone="no"?>
<!DOCTYPE svg PUBLIC "-//W3C//DTD SVG 1.1//EN" "http://www.w3.org/Graphics/SVG/1.1/DTD/svg11.dtd" >
<!--
2013-9-30: Created.
-->
<svg>
<metadata>
Created by iconfont
</metadata>
<defs>

<font id="iconfont" horiz-adv-x="1024" >
  <font-face
    font-family="iconfont"
    font-weight="500"
    font-stretch="normal"
    units-per-em="1024"
    ascent="896"
    descent="-128"
  />
    <missing-glyph />
    
    <glyph glyph-name="x" unicode="x" horiz-adv-x="1001"
d="M281 543q-27 -1 -53 -1h-83q-18 0 -36.5 -6t-32.5 -18.5t-23 -32t-9 -45.5v-76h912v41q0 16 -0.5 30t-0.5 18q0 13 -5 29t-17 29.5t-31.5 22.5t-49.5 9h-133v-97h-438v97zM955 310v-52q0 -23 0.5 -52t0.5 -58t-10.5 -47.5t-26 -30t-33 -16t-31.5 -4.5q-14 -1 -29.5 -0.5
t-29.5 0.5h-32l-45 128h-439l-44 -128h-29h-34q-20 0 -45 1q-25 0 -41 9.5t-25.5 23t-13.5 29.5t-4 30v167h911zM163 247q-12 0 -21 -8.5t-9 -21.5t9 -21.5t21 -8.5q13 0 22 8.5t9 21.5t-9 21.5t-22 8.5zM316 123q-8 -26 -14 -48q-5 -19 -10.5 -37t-7.5 -25t-3 -15t1 -14.5
t9.5 -10.5t21.5 -4h37h67h81h80h64h36q23 0 34 12t2 38q-5 13 -9.5 30.5t-9.5 34.5q-5 19 -11 39h-368zM336 498v228q0 11 2.5 23t10 21.5t20.5 15.5t34 6h188q31 0 51.5 -14.5t20.5 -52.5v-227h-327z" />
    

    
    <glyph glyph-name="building" unicode="&#58907;" d="M736.050334 496.353904l56.012711 0 0-56.012711-56.012711 0 0 56.012711ZM736.050334 328.314747l56.012711 0 0-56.011688-56.012711 0 0 56.011688ZM736.050334 160.276612l56.012711 0 0-56.012711-56.012711 0 0 56.012711ZM399.973042 496.353904l56.012711 0 0-56.012711-56.012711 0 0 56.012711ZM399.973042 328.314747l56.012711 0 0-56.011688-56.012711 0 0 56.011688ZM231.934908 496.353904l56.012711 0 0-56.012711-56.012711 0 0 56.012711ZM399.973042 664.393062l56.012711 0 0-56.012711-56.012711 0 0 56.012711ZM231.934908 664.393062l56.012711 0 0-56.012711-56.012711 0 0 56.012711ZM231.934908 328.314747l56.012711 0 0-56.011688-56.012711 0 0 56.011688ZM904.089491 664.393062L624.023888 664.393062 624.023888 776.418484c0 30.960129-25.051559 56.012711-56.012711 56.012711L119.908462 832.431196c-30.960129 0-56.012711-25.052582-56.012711-56.012711l0-784.180006c0-30.961152 25.052582-56.012711 56.012711-56.012711l448.102714 0 336.078315 0c30.960129 0 56.012711 25.051559 56.012711 56.012711L960.102203 608.379327C960.102203 639.3394559999999 935.04962 664.393062 904.089491 664.393062zM371.966175-7.761522000000014l-56.012711 0L315.953464 104.26390100000003l56.012711 0L371.966175-7.761522000000014zM568.011176-7.761522000000014L427.978886-7.761522000000014 427.978886 132.27076799999998c0 15.479553-12.525268 28.005844-28.005844 28.005844L287.94762 160.276612c-15.480576 0-28.006867-12.526291-28.006867-28.005844l0-140.03229L147.915329-7.761522000000014c-15.479553 0-28.006867 12.526291-28.006867 28.005844L119.908462 748.41264c0 15.479553 12.527314 28.005844 28.006867 28.005844l392.091026 0c15.47853 0 28.004821-12.526291 28.004821-28.005844L568.011176-7.761522000000014zM904.089491 20.24432200000001c0-15.479553-12.526291-28.005844-28.006867-28.005844L624.023888-7.761522000000014 624.023888 608.379327l252.057713 0c15.480576 0 28.006867-12.526291 28.006867-28.006867L904.088468 20.24432200000001z"  horiz-adv-x="1024" />

    
    <glyph glyph-name="coffee" unicode="&#58887;" d="M840.02994347-91.59997547l-417.8691328 0c-72.1990272 0-132.39890347 51.27555413-146.23072854 119.3911808l-3.00824746 0 0 59.6955904-89.5433856 0c-82.4222656 0-149.238976 66.8178016-149.238976 149.238976l0 59.6955904c0 82.4222656 66.8178016 149.238976 149.238976 149.238976l89.5433856 0 0 59.6955904 0 29.8477952 0 59.6955904c0 16.48532693 13.36246827 29.8477952 29.8477952 29.8477952l656.6514944 0c16.48532693 0 29.8477952-13.36246827 29.8477952-29.8477952l0-268.6301568 0-179.0867712 0-89.5433856C989.26891947-24.78326506999997 922.45220907-91.59997547 840.02994347-91.59997547zM183.37844907 385.96474773c-49.45488747 0-89.5433856-40.0917728-89.5433856-89.5433856l0-59.6955904c0-49.45488747 40.08849813-89.5433856 89.5433856-89.5433856l89.5433856 0 0 238.7823616L183.37844907 385.96474773zM929.57332907 326.26915733l0 59.6955904 0 179.0867712-596.955904 0 0-29.8477952 0-29.8477952 0-29.8477952 0-29.8477952 0-29.8477952 0-29.8477952 0-238.7823616 0-29.8477952 0-29.8477952 0-29.8477952c0-49.45488747 40.0917728-89.5433856 89.5433856-89.5433856l417.8691328 0c49.4516128 0 89.5433856 40.08849813 89.5433856 89.5433856L929.57332907 326.26915733zM810.18214827 684.44269973c-16.48532693 0-29.8477952 13.36246827-29.8477952 29.8477952L780.33435307 833.68167573c0 16.48532693 13.36246827 29.8477952 29.8477952 29.8477952 16.48532693 0 29.8477952-13.36246827 29.8477952-29.8477952l0-119.3911808C840.02994347 697.80516907 826.66747413 684.44269973 810.18214827 684.44269973zM631.09537707 684.44269973c-16.48532693 0-29.8477952 13.36246827-29.8477952 29.8477952L601.24758187 833.68167573c0 16.48532693 13.36246827 29.8477952 29.8477952 29.8477952s29.8477952-13.36246827 29.8477952-29.8477952l0-119.3911808C660.94317227 697.80516907 647.580704 684.44269973 631.09537707 684.44269973zM452.00860587 684.44269973c-16.48532693 0-29.8477952 13.36246827-29.8477952 29.8477952L422.16081067 833.68167573c0 16.48532693 13.36246827 29.8477952 29.8477952 29.8477952 16.48532693 0 29.8477952-13.36246827 29.8477952-29.8477952l0-119.3911808C481.85640107 697.80516907 468.4939328 684.44269973 452.00860587 684.44269973zM422.16081067 863.52947093l59.6955904 0 0-179.0867712-59.6955904 0L422.16081067 863.52947093zM601.24758187 863.52947093l59.6955904 0 0-179.0867712-59.6955904 0L601.24758187 863.52947093zM780.33435307 863.52947093l59.6955904 0 0-179.0867712-59.6955904 0L780.33435307 863.52947093z"  horiz-adv-x="1024" />

    
    <glyph glyph-name="facility" unicode="&#59042;" d="M750.41646304 668.64672853L289.79659611 668.64672853c-21.80953904 0-39.4817461-17.67220706-39.4817461-39.4817461l0-13.15957654c0-21.803509 17.67371383-39.4817461 39.4817461-39.4817461l460.61986693 0c21.80953904 0 39.47873108 17.67823563 39.47873106 39.4817461l0 13.15957654C789.89670089 650.97452147 772.22600061 668.64672853 750.41646304 668.64672853zM921.50302397 826.57220468L105.54895039 826.57220468c-21.803509 0-39.4817461-17.67823563-39.48174609-39.4817461l0-473.77944346c0-21.80501725 17.67823563-39.48023932 39.48174609-39.48023933L474.04424182 273.83077725l0-329.02108065c0-21.79748043 17.67220706-39.48023932 39.4817461-39.48023932s39.48023932 17.68275743 39.48023933 39.48023932L553.00622577 273.83077725l368.49378317 0c21.81104582 0 39.4817461 17.67823563 39.48174611 39.48023934L960.98175505 787.09045858C960.98476858 808.89547583 943.31256154 826.57220468 921.50302397 826.57220468zM882.02127787 392.2745073c0-21.803509-17.67220706-39.4817461-39.48023933-39.4817461L184.5124426 352.7927612c-21.803509 0-39.4817461 17.67823563-39.48174611 39.4817461l0 315.85396731c0 21.80953904 17.67823563 39.4817461 39.48174611 39.48174611l658.02859594 0c21.81104582 0 39.48023932-17.67220706 39.48023933-39.48174611L882.02127787 392.2745073zM447.72357903 497.55866083l-157.92698292 0c-21.80953904 0-39.4817461-17.67220706-39.4817461-39.4817461 0-21.803509 17.67371383-39.4817461 39.4817461-39.4817461l157.92698292 0c21.81104582 0 39.4817461 17.67823563 39.48174609 39.4817461C487.20532512 479.88796054 469.53311807 497.55866083 447.72357903 497.55866083z"  horiz-adv-x="1024" />

    
    <glyph glyph-name="parking" unicode="&#59157;" d="M902 864L122 864C72.2928125 864 32 823.7071875 32 774l0-780c0-49.7071875 40.2928125-90 90-90l780 0c49.7071875 0 90 40.2928125 90 90L992 774C992 823.7071875 951.7071875 864 902 864zM932 24c0-33.1378125-26.8621875-60-60-60L152-36c-33.1378125 0-60 26.8621875-60 60L92 744c0 33.1378125 26.8621875 60 60 60l720 0c33.1378125 0 60-26.8621875 60-60L932 24zM572 651.496875L572 654 362 654l0-540 60 0L422 294l150 0 0 2.503125c85.12875 14.2846875 150 88.30875 150 177.496875S657.12875 637.213125 572 651.496875zM542 354L422 354 422 594l120 0c66.2728125 0 120-53.7271875 120-120S608.2728125 354 542 354z"  horiz-adv-x="1024" />

    
    <glyph glyph-name="paper-plane" unicode="&#59065;" d="M-209.80625983 164.53876546000004M1111.51028029 901.17924091c9.08460639-18.4300145-0.01738646-41.48616185-20.32393452-51.49723611L90.51728434 356.41707361c-20.3102739-10.01231701-44.14013318-3.18675354-53.22349681 15.24326096l0 0c-9.08460639 18.42753021 0.01614492 41.48491909 20.32517605 51.49599456L1058.28802501 916.42126032C1078.59581461 926.4323358 1102.42443235 919.6092554 1111.51028029 901.17924091L1111.51028029 901.17924091zM1085.29594461 920.62638384c20.03332605-4.56900486 33.22494491-21.64284772 29.46442733-38.13299178L929.43067942 69.9284606c-3.76300188-16.49014405-23.05366304-26.15596615-43.084506-21.58571976l0 0c-20.0320845 4.56776211-33.22121906 21.64036464-29.45945873 38.13175023L1042.21392291 899.03817979C1045.97444049 915.52956538 1065.26510286 925.1953887 1085.29594461 920.62638384L1085.29594461 920.62638384zM1075.81516825 884.78224172c15.15011732-13.8783973 17.75565514-35.70008064 5.81464518-48.73397619L493.25905238 193.74611570000002c-11.94225149-13.03637865-33.90675596-12.3496002-49.05687327 1.52631281l0 0c-15.15011732 13.87963885-17.75068653 35.69635479-5.80843506 48.73397619L1026.75953651 886.30855453C1038.70054644 899.34369163 1060.66504971 898.65939627 1075.81516825 884.78224172L1075.81516825 884.78224172zM399.62116583 249.61489184000004c-7.30494233-20.15130783-29.5637799-30.56476342-49.71633049-23.26106263L57.99402126 332.16993083c-20.15255059 7.30618387-30.56724651 29.56502145-23.26230418 49.71757204l0 0c7.30618387 20.15130783 29.5637799 30.56600496 49.71633049 23.26106263l291.90957133-105.81858592C396.51141102 292.02628001000005 406.92486661 269.76619967 399.62116583 249.61489184000004L399.62116583 249.61489184000004zM927.78390051 64.35971497000003c-7.30494233-20.15130783-29.5637799-30.56600496-49.71757203-23.26106264l-291.91205562 105.81858592c-20.15006629 7.30494233-30.56600496 29.5637799-23.25982109 49.71508774l0 0c7.30618387 20.15130783 29.5662642 30.56600496 49.71508774 23.26106264l291.91205562-105.81610162C924.67290417 106.76986037999995 935.08635977 84.51226434 927.78390051 64.35971497000003L927.78390051 64.35971497000003zM500.8657795-100.38027393000004c0-21.43544813-17.3768704-38.81231853-38.81231853-38.81231853l0 0c-21.43544813 0-38.81231853 17.3768704-38.81231854 38.81231853L423.24114123 210.11703640999997c0 21.43544813 17.3768704 38.81231853 38.81231852 38.81231853l0 0c21.43544813 0 38.81231853-17.3768704 38.81231853-38.81231853L500.8657795-100.38027393000004z"  horiz-adv-x="1159" />

    
    <glyph glyph-name="finance" unicode="&#58938;" d="M1051.77273687 562.7498915599999L661.35798594 833.453025c-70.12777594 55.58382187-143.02354219 23.27992594-173.39144531-2.70399187L72.91186906 546.34994438c-18.15994219-12.06396188-47.45584781-36.79988156-39.58387312-66.86378626 5.40798281-20.65593375 24.55992094-32.27189719 56.97581812-34.54388906 0.67199813-0.06400031 1.327995-0.07999969 1.99999313-0.07999969l96.81569062-0.12799968 0-430.27062282c0-60.92780531 47.08784906-110.46364687 104.97566438-110.46364687l286.57508343 0c8.46397313 0 15.90394969 3.74398781 21.23193282 9.48796969 5.87198156 5.37598313 9.69596906 12.92795906 9.69596906 21.51993187L611.59814563 190.70308219000003l140.87954906 0c16.09594875 0 29.16790594 13.1359575 29.16790594 29.31190593s-13.07195813 29.32790625-29.16790594 29.32790625l-140.87954906 0-1e-8 64.68779251 140.87954907 0c16.09594875 0 29.16790594 13.1359575 29.16790594 29.31190593 0 16.20794813-13.07195813 29.34390656-29.16790594 29.34390657l-100.55967844 0 104.28766594 111.6796425c11.00796469 11.82396281 10.39996688 30.35190281-1.34399531 41.45586656-11.72796281 11.03996438-30.22390312 10.46396625-41.2158675-1.34399531l-131.77557844-141.18354844-127.61559094 142.12754531c-10.783965 11.99996156-29.21590594 12.94395844-41.19986812 2.12799375-11.96796188-10.84796531-12.91195875-29.39190656-2.12799375-41.4078675l101.87167406-113.45563687-100.38367875 0c-16.09594875 0-29.18390625-13.1359575-29.18390625-29.34390657 0-16.17594844 13.07195813-29.31190594 29.18390625-29.31190593l140.86354875 0 0-64.6877925-140.86354875 0c-16.09594875 0-29.18390625-13.15195781-29.18390625-29.32790625s13.07195813-29.31190594 29.18390625-29.31190594l140.86354875 0 0-228.07926938L294.07916094-37.376187189999996c-25.7279175 0-46.63985062 23.26392562-46.63985063 51.83983406L247.43931125 469.39019063c0 1.31199656-0.59199844 2.41599281-0.75199688 3.67998749 0.03199969 0.30399938 0.19199906 0.55999781 0.19199907 0.8799975 0.03199969 16.19194875-13.00795875 29.32790625-29.13590719 29.37590625l-103.8876675 0.144L522.22243156 783.27718687c0.91199719 0.62399813 1.93599375 1.43999531 2.76799125 2.15999344 5.08798406 4.35198563 50.92783687 41.58386719 100.78367719 1.53599532 0.55999781-0.41599875 1.10399625-0.81599719 1.66399406-1.23199594l390.51075-270.79913344c6.57597938-4.81598531 13.61595656-11.11996406 19.11993938-16.84794563-3.69598781-0.17599875-8.14397344-0.30399938-13.53595688-0.15999937l-92.84770312-0.39999937c-0.27199875 0-0.47999812-0.144-0.75199688-0.144-0.28799906 0-0.49599844 0.144-0.79999687 0.144-16.11194812 0-29.16790594-13.11995813-29.16790594-29.32790626l0.15999938-453.72654749c0-28.57590844-20.94393375-51.83983406-46.65585094-51.83983407l-148.23952594 0c-16.09594875 0-29.15190656-13.10395781-29.15190656-29.31190593 0-16.17594844 13.05595781-29.31190594 29.15190656-29.31190594l148.23952594 0c57.88781438 0 104.99166469 49.55184188 104.99166469 110.46364687L958.36503594 439.03828781l64.6877925 0.27199875c18.36794062-0.31999875 67.34378437-1.45599562 79.61574469 34.92788813C1114.66853469 509.85406125 1076.33265781 544.70194969 1051.77273687 562.7498915599999"  horiz-adv-x="1145" />

    
    <glyph glyph-name="down-arrow" unicode="&#58927;" d="M36.124389 586.37786c0 13.393117 5.129663 26.786235 15.334803 36.991375 20.455435 20.455435 53.527314 20.455435 73.982749 0l403.455241-403.455241 367.511474 367.511474c20.455435 20.455435 53.527314 20.455435 73.982749 0 20.455435-20.455435 20.455435-53.527314 0-73.982749l-404.502849-404.502849c-20.455435-20.455435-53.527314-20.455435-73.982749 0L51.459192 549.386485C41.254053 559.591625 36.124389 572.984742 36.124389 586.37786z"  horiz-adv-x="1024" />

    
    <glyph glyph-name="layerselect" unicode="&#58949;" d="M533.750736 397.722689L533.750736 633.175592c0 129.825347 105.624715 235.4458 235.451482 235.4458 129.826768 0 235.447221-105.620453 235.447221-235.4458 0-129.829609-105.621873-235.452903-235.447221-235.452903L533.750736 397.722689zM769.202218 454.497216c98.521506 0 178.674114 80.155449 178.674114 178.678376 0 98.520085-80.152608 178.672693-178.674114 178.672693-98.522927 0-178.675535-80.151187-178.675535-178.672693l0-178.678376L769.202218 454.497216zM257.637645 397.722689c-129.825347 0-235.4458 105.623294-235.4458 235.452903 0 129.825347 105.620453 235.4458 235.4458 235.4458 129.829609 0 235.452903-105.620453 235.452903-235.4458l0-235.452903L257.637645 397.722689zM257.637645 811.848285c-98.520085 0-178.672693-80.151187-178.672693-178.672693 0-98.524347 80.151187-178.678376 178.672693-178.678376l178.678376 0L436.316021 633.175592C436.316021 731.6956769999999 356.160571 811.848285 257.637645 811.848285zM769.202218-113.83762200000001c-129.828188 0-235.451482 105.621873-235.451482 235.447221L533.750736 357.062501l235.451482 0c129.826768 0 235.447221-105.624715 235.447221-235.451482 0-22.720324-3.233381-45.189194-9.612062-66.778686-3.534557-11.984534-14.723531-20.354955-27.208131-20.354955 0 0 0.001421 0 0 0-2.717688 0-5.426852 0.393518-8.055039 1.169188-15.00908 4.433823-23.618169 20.252669-19.190029 35.261749 4.837285 16.382841 7.290734 33.441907 7.290734 50.701284 0 98.522927-80.152608 178.675535-178.674114 178.675535L590.526684 300.285133l0-178.675535c0-98.521506 80.154029-178.674114 178.675535-178.674114 27.698252 0 54.232999 6.15422 78.864086 18.292183 3.942281 1.943438 8.157325 2.929363 12.527219 2.929363 10.902005 0 20.666076-6.070402 25.483472-15.842997 6.918525-14.035941 1.125148-31.089324-12.913634-38.014953C840.653395-105.71723399999996 805.677195-113.83762200000001 769.202218-113.83762200000001zM257.637645-113.83762200000001c-129.825347 0-235.4458 105.621873-235.4458 235.447221 0 129.828188 105.620453 235.451482 235.4458 235.451482L493.090548 357.06108099999994l0-235.451482C493.090548-8.21574899999996 387.467254-113.83762200000001 257.637645-113.83762200000001zM257.637645 300.286553c-98.520085 0-178.672693-80.154029-178.672693-178.675535 0-98.521506 80.151187-178.674114 178.672693-178.674114 98.524347 0 178.678376 80.152608 178.678376 178.674114L436.316021 300.286553 257.637645 300.286553z"  horiz-adv-x="1024" />

    
    <glyph glyph-name="car" unicode="&#59040;" d="M901.05173333 438.71573333l-44.2368 208.04266667c-16.1792 76.0832-92.60373333 137.9328-170.3936 137.9328L337.8176 784.6912c-77.78986667 0-154.2144-61.88373333-170.3936-137.9328l-44.27093333-208.04266667c-49.2544-21.94773333-83.62666667-69.0176-87.58613334-122.29973333l-10.0352-133.46133333c-4.3008-57.344 28.33066667-109.02186667 79.49653334-129.9456 11.776-46.08 53.31626667-79.70133333 102.53653333-79.70133334 45.70453333 0 84.65066667 28.53546667 99.46453333 69.7344l410.18026667 0c14.81386667-41.1648 53.72586667-69.7344 99.4304-69.7344 49.22026667 0 90.8288 33.62133333 102.57066667 79.70133334 51.16586667 20.92373333 83.7632 72.6016 79.4624 129.9456l-10.00106667 133.46133333C984.6784 369.69813333 950.30613333 416.768 901.05173333 438.71573333zM885.93066667 104.72106667000003c-12.93653333-3.00373333-22.3232-14.2336-23.00586667-27.5456-1.2288-24.84906667-21.57226667-44.3392-46.2848-44.3392-24.13226667 0-43.9296 18.29546667-46.08 42.56426666-1.3312 15.36-14.2336 27.136-29.66186667 27.136L283.30666667 102.53653333c-15.42826667 0-28.29653333-11.776-29.66186667-27.136-2.1504-24.2688-21.94773333-42.56426667-46.08-42.56426666-24.71253333 0-45.056 19.456-46.2848 44.3392-0.64853333 13.27786667-10.0352 24.50773333-22.97173333 27.5456-34.13333333 7.91893333-56.08106667 38.26346667-53.41866667 73.76213333l10.0352 133.4272c2.59413333 34.67946667 28.74026667 66.1504 63.62453333 76.4928 11.3664 3.41333333 19.62666667 13.2096 21.06026667 25.01973333 0.17066667 1.70666667 0.3072 3.41333333 0.44373333 5.12 0.06826667 0.88746667 0.06826667 1.77493333 0.23893334 2.56l45.3632 213.23093334c10.47893333 49.22026667 61.81546667 90.79466667 112.16213333 90.79466666L686.42133333 725.12853333c50.31253333 0 101.6832-41.5744 112.16213334-90.79466666l45.32906666-213.1968c0.17066667-0.88746667 0.17066667-1.77493333 0.23893334-2.62826667 0.1024-1.6384 0.23893333-3.31093333 0.44373333-4.98346667 1.39946667-11.81013333 9.69386667-21.67466667 21.0944-25.088 34.85013333-10.37653333 60.99626667-41.84746667 63.5904-76.4928l10.00106667-133.4272C941.9776 143.01866667000002 920.02986667 112.63999999999999 885.93066667 104.72106667000003zM777.3184 241.35680000000002m-67.2768 0a2.1024 2.1024 0 1 1 134.5536 0 2.1024 2.1024 0 1 1-134.5536 0ZM282.76053333 410.58986667l458.6496 0c11.0592 0 20.54826667 4.096 26.38506667 11.12746666 6.31466667 7.2704 8.84053333 17.23733333 7.20213333 28.02346667-0.13653333 0.7168-0.27306667 1.4336-0.44373333 2.1504l-36.0448 156.5696c-4.5056 24.6784-28.94506667 45.32906667-54.10133333 45.32906667L339.7632 653.78986667c-25.15626667 0-49.59573333-20.61653333-54.13546667-45.32906667L249.61706667 451.92533333c-0.17066667-0.7168-0.3072-1.4336-0.44373334-2.1504-1.67253333-10.78613333 0.88746667-20.75306667 6.82666667-27.61386666C262.2464 414.68586667 271.73546667 410.58986667 282.76053333 410.58986667zM343.48373333 594.2613333300001l337.3056 0 28.53546667-124.1088L314.91413333 470.15253333 343.48373333 594.2613333300001zM246.92053333 241.35680000000002m-67.2768 0a2.1024 2.1024 0 1 1 134.5536 0 2.1024 2.1024 0 1 1-134.5536 0Z"  horiz-adv-x="1024" />

    
    <glyph glyph-name="trade" unicode="&#58880;" d="M983.66 26.122333329999947h-33.548v469.674c0 73.805-60.387 134.193-134.193 134.193h-201.289v67.096c0 73.805-60.387 134.193-134.193 134.193h-268.385c-73.805 0-134.193-60.387-134.193-134.193v-670.963h-33.548c-18.787 0-33.548-14.761-33.548-33.548s14.761-33.548 33.548-33.548h939.347c18.787 0 33.548 14.761 33.548 33.548s-14.761 33.548-33.548 33.548zM547.534 629.9883333299999v-603.866h-402.577v670.963c0 36.904 30.193 67.096 67.096 67.096h268.385c36.904 0 67.096-30.193 67.096-67.096v-67.096zM883.015 26.122333329999947h-268.385v536.77h201.289c36.904 0 67.096-30.193 67.096-67.096v-469.674zM446.89 629.9883333299999h-201.289c-18.787 0-33.548-14.761-33.548-33.548s14.761-33.548 33.548-33.548h201.289c18.787 0 33.548 14.761 33.548 33.548s-14.761 33.548-33.548 33.548zM446.89 428.69933333h-201.289c-18.787 0-33.548-14.761-33.548-33.548s14.761-33.548 33.548-33.548h201.289c18.787 0 33.548 14.761 33.548 33.548s-14.761 33.548-33.548 33.548zM446.89 227.41033332999996h-201.289c-18.787 0-33.548-14.761-33.548-33.548s14.761-33.548 33.548-33.548h201.289c18.787 0 33.548 14.761 33.548 33.548s-14.761 33.548-33.548 33.548zM782.371 428.69933333h-67.096c-18.787 0-33.548-14.761-33.548-33.548s14.761-33.548 33.548-33.548h67.096c18.787 0 33.548 14.761 33.548 33.548s-14.761 33.548-33.548 33.548zM782.371 227.41033332999996h-67.096c-18.787 0-33.548-14.761-33.548-33.548s14.761-33.548 33.548-33.548h67.096c18.787 0 33.548 14.761 33.548 33.548s-14.761 33.548-33.548 33.548z"  horiz-adv-x="1024" />

    
    <glyph glyph-name="ktv" unicode="&#58937;" d="M930.097808 183.20276479999995L608.09964053 582.4231648c0.43006187 6.06561387 0.92670613 12.0853824 0.92670614 18.28416213 0 144.13499733-117.262704 261.39770133-261.40970774 261.39770134-144.15682773 0-261.420624-117.2637952-261.420624-261.39770134 0-144.14591253 117.2637952-261.40861653 261.420624-261.40861653 6.16712533 0 12.21964053 0.49773653 18.27433814 0.90378453l399.18437973-322.00908266c5.36376213-4.298432 11.82450773-6.4258176 18.26124053-6.4258176 7.47914027 0 14.93645013 2.84997547 20.57091094 8.50845013l22.76378773 22.76269547c0.0436608-8.77696533-1.08606933-18.05603307-4.43596373-27.1517248-7.49005547-20.23144533-25.12803413-36.34237867-52.41947414-47.7914016-32.13236053-13.53274667-82.11773013 9.90887893-139.99374506 37.01912533-106.5690176 49.9635392-252.4930272 118.3957088-408.66538027-3.98298027-12.6507936-9.91106133-14.85676907-28.24106773-4.95771413-40.86566506 9.91106133-12.62677973 28.19740693-14.8447616 40.84601706-4.93479147 127.989136 100.33640107 244.9112832 45.48500587 348.0878368-2.89581973 50.57806827-23.71669013 99.04839893-46.4346336 143.71585174-46.4346336 14.95828053 0 29.50942187 2.5345248 43.55082026 8.46260586 42.69942933 17.9676192 71.09876907 45.30381227 84.39356267 81.28380374 13.90495787 37.56488853 7.0152416 74.9453088 0.04693547 97.48533333l51.18495786 51.18714027C938.53530773 154.91803519999996 939.44127573 171.66423680000003 930.097808 183.20276479999995zM144.37438293 600.70732693c0 112.05830507 91.17194347 203.21824107 203.24225494 203.21824107 112.05939627 0 203.23133973-91.159936 203.23133973-203.21824107s-91.17194347-203.25207893-203.23133973-203.25207893C235.5463264 397.45524907 144.37438293 488.64902187 144.37438293 600.70732693zM781.2561472 79.88103893000005L438.91410667 356.04272853c70.71564267 26.5230048 126.8441248 82.64166293 153.3332928 153.3354752l276.16278186-342.33112533-41.21822826-41.2280512c-3.76685867-2.39917547-6.8449632-5.4761888-9.09678294-9.09787413L781.2561472 79.88103893000005zM606.0508448 379.850016c-11.37152427 11.35951787-29.78012053 11.35951787-41.1396384 0-11.3584256-11.3584256-11.3584256-29.78012053 0-41.1396384l63.0334784-63.0443936c5.680304-5.6573824 13.12451627-8.50954133 20.56981867-8.50954133 7.43547947 0 14.87859947 2.85215893 20.55890346 8.50954133 11.37152427 11.35951787 11.37152427 29.77902933 0 41.13854613L606.0508448 379.850016z"  horiz-adv-x="1024" />

    
    <glyph glyph-name="gas-station" unicode="&#58904;" d="M575.726394 651.045055c0-18.869766-15.287171-34.156938-34.156938-34.156938L313.650513 616.8881180000001c-18.869766 0-34.156938 15.287171-34.156938 34.156938l0 0c0 18.892279 15.287171 34.17945 34.156938 34.17945l227.898477 0C560.417733 685.224506 575.726394 669.937334 575.726394 651.045055L575.726394 651.045055 575.726394 651.045055zM927.564647 661.943266c-29.483498 26.447349-79.452563 70.498634-94.696756 85.764316-8.604982 8.56098-28.326139 13.606903-41.452087-0.195451-12.515035-13.147438-7.076162-30.401404 2.183735-39.22435 12.033058-11.422144 37.564547-32.956599 54.81749-50.733475-0.174985-0.044002-0.284479-0.197498-0.459464-0.26299 1.310855-1.309832 2.118244-3.100618 2.118244-5.087878 0-1.987261-0.807389-3.778046-2.118244-5.066389 0.153496-0.044002 0.240477-0.197498 0.39295-0.217964-14.152325-15.702634-33.828456-31.777751-46.867424-46.14804-0.130983-0.130983-0.10847-0.283456-0.217964-0.414439-3.603061-3.037173-6.027274-7.426133-6.027274-12.515035 0-9.128915 7.40362-16.554024 16.532535-16.554024 0.459464 0 0.895393 0.239454 1.353834 0.283456l0.153496-0.196475 65.977667 0c4.979408 0 6.202259-4.935406 6.202259-4.935406l0-473.463312c0-26.425859-14.370289-34.747385-29.090549-34.747385-14.741749 0-30.466895 8.407484-30.466895 34.747385l0 387.06557c0 35.118845-3.842515 50.973952-43.460838 53.113685-9.740852 0.481977-48.680722 0.130983-69.822229 0L712.617134 779.921261c0 32.562627-26.360368 58.924018-58.924018 58.924018l-454.921004 0c-32.541137 0-58.922994-26.361391-58.922994-58.924018L139.849118-2.486377999999945l-33.633005 0c-13.453407 0-24.242124-10.854209-24.242124-24.220634l0-18.71627c0-13.387915 10.788717-25.420973 24.242124-25.420973l639.095653 0c13.409404 0 24.220634 12.034081 24.220634 25.420973l0 18.71627c0 13.365402-10.81123 24.220634-24.220634 24.220634l-32.716122 0L712.595644 476.2838c11.923564-0.021489 28.632107 0 40.622186 0 14.45727 0 15.702634-14.370289 15.702634-14.370289L768.920464 89.28372200000001c0-95.112218 78.688153-96.030124 87.424118-96.030124 11.728112 0 85.677335 0 85.677335 94.871741 0 17.711384 0 547.500539 0 547.500539S942.525384 648.48986 927.564647 661.943266L927.564647 661.943266zM644.325771 36.32250899999997c0-21.665439-17.646915-39.289841-39.289841-39.289841L248.022817-2.967332000000056c-21.665439 0-39.22435 17.624403-39.22435 39.289841L208.798467 731.1975600000001c0 21.686928 17.558911 39.289841 39.22435 39.289841l357.034603 0c21.643949 0 39.289841-17.602913 39.289841-39.289841l0-694.875051L644.325771 36.32250899999997 644.325771 36.32250899999997z"  horiz-adv-x="1024" />

    
    <glyph glyph-name="area" unicode="&#59238;" d="M959.146667 377.17333299999996l-416.426667 238.933333c0 0 0 0 0 0L542.72 677.5466670000001l170.666667 0c20.48 0 34.133333 13.653333 34.133333 34.133333L747.52 834.56c0 20.48-13.653333 34.133333-34.133333 34.133333l-204.8 0c-20.48 0-34.133333-13.653333-34.133333-34.133333l0-218.453333c0 0 0 0 0 0l-399.36-238.933333c-27.306667-17.066667-37.546667-47.786667-30.72-75.093333 6.826667-30.72 34.133333-51.2 64.853333-51.2l815.786667 0c30.72 0 58.026667 20.48 64.853333 51.2C1000.106667 332.79999999999995 986.453333 363.52 959.146667 377.17333299999996zM542.72 800.426667l136.533333 0 0-54.613333-136.533333 0L542.72 800.426667zM109.226667 319.146667l399.36 238.933333 416.426667-238.933333L109.226667 319.146667zM180.906667 32.42666699999995l0 150.186667c0 20.48-13.653333 34.133333-34.133333 34.133333s-34.133333-13.653333-34.133333-34.133333l0-150.186667c0-20.48 13.653333-34.133333 34.133333-34.133333S180.906667 11.946667000000048 180.906667 32.42666699999995zM931.84 32.42666699999995l0 150.186667c0 20.48-13.653333 34.133333-34.133333 34.133333s-34.133333-13.653333-34.133333-34.133333l0-150.186667c0-20.48 13.653333-34.133333 34.133333-34.133333S931.84 11.946667000000048 931.84 32.42666699999995zM682.666667 32.42666699999995l0 150.186667c0 20.48-13.653333 34.133333-34.133333 34.133333s-34.133333-13.653333-34.133333-34.133333l0-150.186667c0-20.48 13.653333-34.133333 34.133333-34.133333S682.666667 11.946667000000048 682.666667 32.42666699999995zM433.493333 32.42666699999995l0 150.186667c0 20.48-13.653333 34.133333-34.133333 34.133333s-34.133333-13.653333-34.133333-34.133333l0-150.186667c0-20.48 13.653333-34.133333 34.133333-34.133333S433.493333 11.946667000000048 433.493333 32.42666699999995zM955.733333-32.42666699999995L61.44-32.42666699999995c-20.48 0-34.133333-13.653333-34.133333-34.133333s13.653333-34.133333 34.133333-34.133333L955.733333-100.69333300000005c20.48 0 34.133333 13.653333 34.133333 34.133333S972.8-32.42666699999995 955.733333-32.42666699999995zM430.08 438.613333c0-44.373333 34.133333-78.506667 78.506667-78.506667s78.506667 34.133333 78.506667 78.506667-34.133333 78.506667-78.506667 78.506667S430.08 479.573333 430.08 438.613333zM539.306667 438.613333c0-17.066667-13.653333-30.72-30.72-30.72S477.866667 418.133333 477.866667 438.613333s13.653333 30.72 30.72 30.72S539.306667 455.68 539.306667 438.613333z"  horiz-adv-x="1024" />

    
    <glyph glyph-name="shopping" unicode="&#58912;" d="M982.2208 553.84746667c-0.06826667 0.512-0.17066667 0.98986667-0.27306667 1.39946666-0.4096 1.97973333-0.95573333 3.8912-1.7408 5.7344l-80.00853333 199.168c-13.85813333 41.30133333-53.6576 66.62826667-100.21546667 66.73066667H238.3872c-47.17226667 0-83.83146667-25.088-97.10933333-64.75093333l-86.016-203.22986667c-0.4096-1.19466667-0.85333333-2.9696-1.2288-4.77866667-6.2464-19.18293333-9.38666667-38.87786667-9.38666667-58.64106666 0.06826667-69.49546667 38.1952-132.94933333 99.46453333-165.61493334 0 0 0-0.03413333 0.03413334-0.03413333s0.03413333 0 0.03413333-0.03413333c0 0 0.03413333 0 0.03413333-0.03413334 25.22453333-13.44853333 54.8864-20.2752 88.30293334-20.2752 56.0128 0.17066667 107.89546667 24.7808 143.2576 66.90133334 35.19146667-41.7792 86.66453333-66.21866667 142.57493333-66.56 55.46666667 0.44373333 106.8032 24.9856 141.824 66.73066666 35.36213333-42.12053333 87.31306667-66.62826667 143.59893333-66.62826666 34.06506667 0.17066667 64.3072 7.33866667 89.77066667 21.2992 60.34773333 32.9728 97.792 96.18773333 97.75786667 164.9664 0.1024 19.7632-3.14026667 39.59466667-9.07946667 57.6512z m-121.344-162.7136c-15.4624-8.46506667-34.74773333-12.8-57.17333333-12.93653334-41.5744 0-79.4624 21.0944-101.5808 56.90026667-1.57013333 3.3792-4.1984 8.97706667-9.1136 14.37013333-5.632 6.31466667-15.872 13.78986667-32.73386667 13.78986667-13.58506667 0-25.9072-5.56373333-32.8704-14.09706667-4.608-5.18826667-7.13386667-10.3424-8.94293333-14.09706666-21.84533333-35.36213333-59.42613333-56.66133333-100.1472-56.96853334-41.23306667 0.23893333-78.91626667 21.46986667-100.89813334 57.10506667-1.536 3.14026667-4.096 8.43093333-8.0896 12.9024-16.04266667 19.1488-51.95093333 18.15893333-65.9456 1.46773333-5.15413333-5.632-7.85066667-11.29813333-9.59146666-15.1552-22.05013333-35.36213333-59.97226667-56.55893333-101.34186667-56.69546666-22.05013333 0-40.92586667 4.13013333-56.14933333 12.25386666h-0.03413334-0.03413333c-39.04853333 20.7872-63.31733333 61.20106667-63.35146667 105.43786667 0 13.07306667 2.18453333 26.24853333 6.5536 39.08266667 0.3072 0.9216 0.58026667 1.9456 0.8192 3.00373333L204.97066667 737.792c1.7408 5.12 6.99733333 20.71893333 33.34826666 20.71893333H800.08533333c10.82026667-0.64853333 29.45706667-2.56 36.07893334-22.05013333l79.32586666-197.5296c0.3072-1.4336 0.68266667-2.79893333 1.024-3.92533333 4.4032-12.86826667 6.58773333-25.94133333 6.58773334-38.912 0.06826667-43.7248-23.79093333-83.93386667-62.22506667-104.96z m25.6-109.53386667c-18.87573333 0-34.13333333-15.2576-34.13333333-34.13333333l0.06826666-186.23146667c0-10.58133333-8.63573333-19.18293333-19.18293333-19.21706667l-642.21866667-0.4096c-10.58133333 0-19.18293333 8.53333333-19.18293333 19.0464l-0.23893333 183.02293334c-0.03413333 18.8416-15.32586667 34.06506667-34.13333334 34.06506666h-0.06826666c-18.8416-0.03413333-34.0992-15.32586667-34.06506667-34.2016l0.23893333-182.92053333c0-48.128 39.2192-87.27893333 87.4496-87.27893333l642.32106667 0.4096c48.16213333 0.1024 87.3472 39.35573333 87.3472 87.51786666L920.61013333 247.46666667c0 18.87573333-15.29173333 34.13333333-34.13333333 34.13333333zM785.06666667 520.53333333H238.93333333c-18.8416 0-34.13333333 15.29173333-34.13333333 34.13333334s15.29173333 34.13333333 34.13333333 34.13333333h546.13333334c18.87573333 0 34.13333333-15.29173333 34.13333333-34.13333333s-15.2576-34.13333333-34.13333333-34.13333334z"  horiz-adv-x="1024" />

    
    <glyph glyph-name="famous" unicode="&#58881;" d="M906.1330523 380.62396302a39.44301113 39.44301113 0 0 0-20.74433536 5.88301767c-18.61479993 11.47479609-24.41976491 35.89456213-12.96477297 54.52916622 21.47942173 34.86940274 32.81791773 74.98226233 32.81791772 116.00495048 0 122.11979491-99.34377984 221.48337891-221.44376946 221.48337891-80.53559751 0-154.80257877-43.90595015-193.77378418-114.55341909-10.56496754-19.17630691-34.63641088-26.14156743-53.83252309-15.5567946-19.19494599 10.56496754-26.16137159 34.67602034-15.55679459 53.83135801 52.94249757 95.93861917 153.75645013 155.537664 263.16310186 155.537664 165.79158926 0 300.70257891-134.90982457 300.70257778-300.74102215 0-55.70926365-15.40302165-110.19998549-44.58395307-157.56817863-7.50579826-12.15512917-20.47057123-18.85011968-33.78366464-18.85012082zM944.91087417 181.81990855000004c-11.53304462 0-22.94959331 4.99182819-30.76759894 14.62832697L762.05154531 383.31384262999995l-103.29180956-122.15823929c-7.81684167-9.24857003-20.00808391-14.93704021-31.57840668-14.00857145a39.49426915 39.49426915 0 0 0-30.57305259 16.09733462L352.21374862 594.88812259 111.92218851 205.23315314c-11.4934363-18.65324317-35.87475797-24.42092999-54.52916622-12.96477184-18.65324317 11.49460139-24.41976491 35.91320121-12.9263286 54.53033017l271.05799509 439.65595762a39.69347698 39.69347698 0 0 0 32.12127573 18.78837816c13.19659861 0.32968249 25.73616355-5.49508779 33.51456086-16.07986062l249.46324252-338.53096277 101.74358528 120.31877575a39.6387237 39.6387237 0 0 0 30.26433821 14.04817977h0.3867648c11.76603534-0.11649593 22.91115008-5.47644871 30.34239203-14.60968789l182.24073842-223.93910159c13.81518905-16.9512448 11.26160953-41.91387875-5.7280785-55.7290678a39.3171968 39.3171968 0 0 0-24.96263396-8.90141355z m-37.07582464-113.35468146c0 21.90695993-17.7247744 39.63173433-39.62940416 39.63173433H154.87986574c-21.86618653 0-39.62940416-17.7247744-39.62940416-39.63173433 0-21.90462976 17.76438272-39.62940416 39.62940416-39.62940416h713.32694471c21.90346467 0 39.62823907 17.7247744 39.62823908 39.62940416zM788.94800213-50.421820300000036c0 21.90462976-17.7247744 39.62940416-39.62940416 39.62940416H273.76807822c-21.86618653 0-39.62940416-17.7247744-39.62940416-39.62940416s17.76438272-39.62940416 39.62940416-39.62940416h475.55051975c21.90462976 0 39.62940416 17.7247744 39.62940416 39.62940416z"  horiz-adv-x="1024" />

    
    <glyph glyph-name="up-arrow" unicode="&#58929;" d="M512 654c-15.36 0-30.72-5.85-42.42-17.58l-420-420a59.985 59.985 0 0 1 0-84.84 59.985 59.985 0 0 1 84.84 0L512 509.16l377.58-377.58c23.43-23.43 61.41-23.43 84.84 0s23.43 61.41 0 84.84l-420 420A59.76 59.76 0 0 1 512 654z"  horiz-adv-x="1024" />

    
    <glyph glyph-name="hospital" unicode="&#58897;" d="M155.36 864h427.536c22.752-1.296 47.184-6.912 63.264-24.24 17.808-19.488 22.032-47.04 22.464-72.48 0.48-78.576-0.144-157.152 0.288-235.68 74.064-0.048 148.128 0.24 222.192-0.096 23.28 0.096 48.048-8.112 62.304-27.456 15.264-20.544 16.512-47.328 16.944-71.952 0.096-176.016 0-352.08 0.096-528.096H65.84c0.192 291.264 0 582.528 0.144 873.744-0.24 23.76 7.248 48.864 25.68 64.8C108.896 858.192 132.848 862.656 155.36 864m5.472-65.232c-21.888-8.304-35.568-31.872-34.992-54.816 0.144-261.504 0-523.056 0.096-784.56 40.08-0.096 80.16 0.048 120.24-0.096 0.192 40.08 0.096 80.16 0.048 120.192 80.208 0.528 160.464 0.048 240.72 0.288 1.344-40.272-2.928-80.88 2.4-120.816 39.984 1.008 79.968-0.048 119.952 0.624 0 248.688-0.048 497.376 0 746.016 0 21.936 1.392 45.216-8.304 65.52-10.368 20.256-32.88 33.12-55.536 32.688-111.984 0.096-224.016-0.144-336 0.096-16.272-0.144-33.264 1.296-48.624-5.136m508.032-326.208c-0.144-171.12-0.096-342.192-0.048-513.264 30.192 0.144 60.384 0.048 90.576 0.048 0.144 40.128 0.048 80.256 0.048 120.336 20.256 0.096 40.464 0.192 60.72-0.288-0.096-40.032-0.144-80.016 0-120.048 29.856 0.048 59.712 0.096 89.52-0.048 0.336 143.088-0.048 286.176 0.24 429.264-0.528 15.648 1.056 32.304-5.808 46.848-10.704 20.64-32.112 37.152-56.112 37.008-59.712 0.24-119.424-0.144-179.136 0.144zM336.8 713.232c20.448 0.144 40.896 0.192 61.344-0.144-0.096-30.096 0.048-60.192-0.144-90.288 29.712-0.096 59.376 0.048 89.088-0.144-0.192-19.824-0.192-39.696-0.096-59.568-29.52 0.096-58.992-0.096-88.512 0.192-0.768-30.192-0.288-60.384-0.336-90.576-20.448-0.336-40.944-0.288-61.392-0.144 0.096 30.192 0.24 60.432-0.096 90.624-30.192 0-60.336-0.288-90.48 0.192 0.144 19.68 0.144 39.36-0.048 59.04 30.24 0.672 60.48 0.192 90.768 0.384-0.096 30.144-0.048 60.288-0.096 90.432zM759.392 381.552c20.208 0.096 40.464 0.144 60.72-0.192-0.192-20.448 1.44-41.04-2.592-61.2-18.912 2.592-40.704-4.368-57.84 3.84-0.816 19.152 0.048 38.352-0.288 57.552zM246.176 381.408c80.304 0.336 160.608 0.24 240.96 0.096-0.192-20.4 0-40.848-0.768-61.248-73.056 0.336-146.112 0.24-219.12 0.048-7.296-0.24-14.4 1.632-21.504 2.976 0.72 19.344 0.624 38.736 0.432 58.128zM245.84 229.24800000000005c18.048 3.744 36.528 2.112 54.816 2.304 61.968 0.096 123.936-0.144 185.904 0.096 0.528-20.448 0.432-40.944 0.24-61.44-80.16 0.288-160.368-0.192-240.576 0.24 0.096 19.632 0.192 39.216-0.384 58.8zM759.632 231.60000000000002c19.392-0.096 38.736-0.144 58.128 0.24 3.456-20.4 3.168-41.232 0.816-61.776-19.68 0.288-39.408 0.288-59.088 0.144-0.048 20.496-0.096 40.944 0.144 61.392z"  horiz-adv-x="1024" />

    
    <glyph glyph-name="lamp" unicode="&#58989;" d="M509.672727 4.654544999999985c-90.763636 0-172.21818201 58.18181799-197.818182 144.29091-4.654545 13.963636-9.309091 16.290909-23.27272701 16.290909H109.38181801c-2.327273 0-4.654545 0-6.98181801 2.327272l-4.654545 2.327273-2.32727301 4.654546c-13.963636 90.763636 20.945455 209.454545 90.76363602 297.890909 51.2 67.490909 146.61818199 148.945455 302.54545499 165.236363V830.836364v9.309091c0 6.98181799-2.327273 16.290909 2.327272 23.27272701 9.309091 18.61818201 20.945455 27.927273 30.254546 32.58181799h9.30909099c16.290909 0 27.927273-13.963636 27.92727301-37.236364v-225.74545401c125.672727-20.945455 225.745455-83.78181801 297.890909-193.16363699C907.636364 360.72727299999997 933.236364 274.61818201000006 928.58181801 174.54545499999995v-6.981819l-16.29090901-2.327272h-20.945454-162.909091c-11.636364 0-13.963636-2.327273-18.61818201-13.963637-25.6-88.436364-104.727273-146.61818199-200.14545499-146.618182z m-130.327272 158.254546c16.290909-55.854545 69.81818199-90.763636 134.981818-90.763636h6.981818c58.18181799 2.327273 111.709091 41.890909 123.345454 90.763636H379.345455z m481.745454 69.818182C851.78181799 393.309091 707.490909 570.18181799 512 570.18181799c-11.636364 0-23.272727 0-34.909091-2.32727299C279.272727 546.909091 162.909091 358.4 162.909091 232.72727299999997h698.181818zM816.872727 67.49090899999999c-6.98181799 2.327273-13.963636 4.654545-20.945454 4.654546-16.290909 4.654545-30.254545 6.98181799-44.218182 13.963636-11.636364 4.654545-20.945455 27.927273-18.618182 39.563636 2.327273 11.636364 20.945455 23.272727 32.581818 23.272728 23.272727-2.327273 44.21818201-6.98181799 65.163637-16.29091 11.636364-4.654545 20.945455-25.6 18.618181-37.23636301-2.327273-9.309091-11.636364-16.290909-18.618181-20.94545499-2.327273-2.327273-4.654545-2.327273-6.981819-4.65454501l-2.327272-2.32727299h-4.654546zM723.78181799-100.07272699999999c-9.309091 0-16.290909 2.327273-23.27272699 6.981818-16.290909 11.636364-30.254545 25.6-44.218182 41.890909-9.309091 11.636364-11.636364 23.272727-6.981818 34.909091s16.290909 18.61818201 27.927273 20.945454c23.272727 0 76.8-48.872727 76.8-76.8v-2.327272l-2.327273-2.327273s-2.327273-2.327273-2.32727301-4.654545c-2.327273-4.654545-9.309091-13.963636-16.29090899-16.29091 0-2.327273-4.654545-2.327273-9.30909099-2.327272zM523.636364-128c-11.636364 0-18.61818201 2.327273-25.6 9.309091-9.309091 9.309091-9.309091 23.272727-9.309091 34.90909099v13.963636 13.96363701c0 18.61818201 0 46.545455 34.909091 46.545454 11.636364 0 20.945455-2.327273 25.6-9.30909101 9.309091-11.636364 9.309091-27.927273 9.309091-41.89090899v-16.290909c0-13.963636 2.327273-30.254545-9.309091-39.563636-4.654545-9.309091-13.963636-11.636364-25.6-11.636364zM297.890909-93.09090900000001h-4.654545c-11.636364 4.654545-25.6 25.6-27.927273 32.581818v4.654546l2.327273 4.654545c20.945455 25.6 41.890909 44.21818201 60.509091 60.509091l2.327272 2.327273h4.654546c4.654545 0 11.636364-4.654545 23.272727-11.636364 4.654545-2.327273 6.98181799-4.654545 11.636364-6.98181799l4.654545-2.32727301v-4.654545c-9.309091-27.927273-53.527273-79.127273-76.8-79.127273zM197.81818199 76.79999999999995c-2.327273 2.327273-4.654545 4.654545-6.98181799 4.654545-6.98181799 4.654545-16.290909 11.636364-16.290909 20.945455-2.327273 11.636364 6.98181799 32.58181799 18.618181 37.236364 18.61818201 9.309091 39.563636 16.290909 60.509091 16.290909 13.963636 0 32.58181799-13.963636 34.90909099-25.6 2.327273-11.636364-6.98181799-32.58181799-18.61818199-39.563637-13.963636-6.98181799-27.927273-9.309091-44.218181-13.963636-6.98181799-2.327273-13.963636-2.327273-20.945455-4.654545l-4.654545-2.32727301-2.32727301 6.98181801z"  horiz-adv-x="1024" />

    
    <glyph glyph-name="bus" unicode="&#58967;" d="M756.56090347 859.97655147H265.9022272c-101.9584096 0-184.3588448-83.72118293-184.3588448-186.99597227v-497.6815584c0-82.24325547 52.2000768-151.93832107 124.78659733-177.0314272 9.69712213-50.1774784 53.20209813-88.12549227 105.4032672-88.12549227 48.59803947 0 89.7889792 32.96628693 102.99099307 78.16312854h193.011376c13.1867328-45.15536427 54.30781547-78.1631296 102.99317653-78.16312854 52.1029312 0 95.6919552 37.89234667 105.4032672 88.1222176 72.6476448 25.10838613 124.78550507 94.88531733 124.78550507 177.03688427V672.9805792c0.0010912 103.4155968-82.537968 186.99597333-184.35666133 186.99597227z m122.97902826-685.1949152h-0.0021824c0-68.60135573-54.7640736-124.2135456-122.46273706-124.21354454h-0.30671894l3.228736-34.88955733c-0.14626453-27.41805653-26.0394592-53.77514987-50.86841493-45.17173653-24.02450027 8.32398187-39.5918528 19.4630112-39.5918528 45.17173653v30.15451413H352.92636907v-30.15451413c0-25.79059093-19.62674027-45.22958827-45.23067947-45.22958827-25.42711253 0-45.23067947 19.52086187-45.23067947 45.22958827l3.23637654 34.88955733h-0.30671894c-67.63317227 0-122.4616448 55.5456064-122.46164586 124.21354454l-1.0817024 217.81631893 737.68970453 0.41259733v-218.22891626zM669.5367616 452.9048l-89.842464 162.2739872c-8.34799573 14.663568-27.20193493 19.90726187-41.88078507 11.31258133-14.78145387-8.65580587-19.729344-27.6014336-11.27983573-42.44292053l82.6973312-131.143648H458.4628032l-89.50299947 161.15517227c-8.34799573 14.66575147-27.19975147 19.91053653-41.8796928 11.3136736-14.78363627-8.65798933-19.729344-27.6014336-11.2798368-42.4440128l82.3556832-130.02592427H141.85131947l1.07842773 220.59643627c0 68.60026453 66.913856 126.16846933 134.61361173 126.1684704h482.4547616c67.63426347 0 119.5396288-57.5038048 119.5396288-126.1684704v-218.2300064h0.0010912l1.07406187-2.36642987H669.5367616zM352.92636907 181.52290559999994c33.30684267 0 60.3068448 27.00109333 60.30684586 60.3068448s-27.00109333 60.3068448-60.30684586 60.3068448c-33.30684267 0-60.3068448-27.00109333-60.3068448-60.3068448s27.00000213-60.3068448 60.3068448-60.3068448z m361.841072 0c33.30684267 0 60.3068448 27.00109333 60.3068448 60.3068448s-27.00109333 60.3068448-60.3068448 60.3068448S654.4605952 275.13659307 654.4605952 241.83084159999999s27.00109333-60.30793707 60.30684587-60.307936z"  horiz-adv-x="1024" />

    
    <glyph glyph-name="shops" unicode="&#59478;" d="M805.376 666.624h-14.336c-16.896 11.264-36.352 18.432-56.32 19.968C705.536 783.36 654.848 803.84 617.472 803.84c-23.552 0-41.472-10.24-53.248-19.968-24.064 26.624-53.248 40.448-87.04 40.448C414.72 824.3199999999999 366.08 781.312 337.92 691.2H231.424c-64.512 0-119.808-56.832-119.808-121.856v-520.704c0-31.232 12.288-60.416 34.304-81.92 22.016-21.504 51.2-33.28 82.432-33.28h576.512c31.232 0 60.928 11.776 82.432 33.28 22.016 21.504 34.304 50.688 34.304 81.92V548.864c1.024 65.024-51.712 117.76-116.224 117.76z m-187.904 89.088c27.136 0 65.024-62.464 65.024-62.464l-65.536-2.048s-16.896 35.84-25.6 52.224c5.12 5.12 14.336 11.776 26.112 12.288z m-140.8 20.48c24.576 0 46.08-13.824 64-40.96 0.512-1.536 1.536-2.56 2.048-3.584 7.68-12.288 14.336-23.04 20.48-39.936H391.168c20.992 58.88 49.152 84.48 85.504 84.48z m313.344-722.944c0-37.888-27.648-66.56-66.56-66.56h-491.52c-38.4 0-66.56 28.672-66.56 66.56V571.904c0 38.4 28.672 66.56 66.56 66.56h93.184c-2.56-11.264-2.56-22.016-4.096-33.28-11.776-7.168-18.944-19.968-18.944-33.28 0-21.504 17.408-38.912 39.424-38.912s39.424 17.408 39.424 38.912c0 10.24-4.096 20.48-11.264 27.648 2.048 13.824 6.144 26.624 9.216 39.424h199.168c3.072-12.8 5.12-25.6 7.168-38.912-7.68-7.168-12.288-17.408-12.288-28.16 0-21.504 17.408-38.912 39.424-38.912s39.424 17.408 39.424 38.912c0 13.312-7.168 26.112-18.432 33.28-1.536 11.776 0 22.528-2.048 33.792h93.184c14.848 0 30.72-4.096 42.496-12.8 1.024-1.024 2.56-2.048 3.584-3.072 15.36-13.312 20.48-30.208 20.48-50.688l-1.024-519.168z m79.36 0c0-32.256-35.328-72.704-66.56-79.872 13.312 19.456 26.624 55.808 26.624 79.872V571.904c0 14.848-8.192 39.424-13.312 53.248 24.576-11.264 53.248-52.224 53.248-79.872v-492.032z"  horiz-adv-x="1024" />

    
    <glyph glyph-name="motorcycle" unicode="&#58889;" d="M361.10147336 380.74928503a209.31214253 209.31214253 0 1 1 209.31214251-209.31214251 209.5457937 209.5457937 0 0 1-209.31214251 209.31214251z m0-350.47614577a141.16400327 141.16400327 0 1 0 141.16400327 141.16400327 141.32463794 141.32463794 0 0 0-141.16400327-141.16400327zM1104.24233032 515.42461184a329.92948196 329.92948196 0 0 1-139.32400286-30.50602762 34.07407004 34.07407004 0 1 1 28.573541-61.86877541 264.62409302 264.62409302 0 0 0 375.22852351-240.25139786 34.07407004 34.07407004 0 1 1 68.14813925 0 333.00101541 333.00101541 0 0 1-332.6262009 332.62620089zM1096.12783413 380.74928503a209.31214253 209.31214253 0 1 1 209.31214253-209.31214251 209.5457937 209.5457937 0 0 1-209.31214253 209.31214251z m0-350.47614577a141.16400327 141.16400327 0 1 0 141.16400327 141.16400327 141.32463794 141.32463794 0 0 0-141.16400327-141.16400327zM1367.67383133 606.22227228a34.04486343 34.04486343 0 0 1-37.83195291 29.8488848l-497.18935438-58.6414737-91.65924782-323.24122898h-91.0021042L566.91858997 498.80620084l73.13755682 231.44081698 126.28336954 7.53036988a34.07407004 34.07407004 0 1 1-4.05481366 68.03131365l-173.0816716-10.319575-33.41692639-105.74644181-300.63064966-47.77671342a34.07407004 34.07407004 0 0 1-21.45692834-54.68888149l64.44866876-82.10390515C207.9872073 479.15033103 138.29599927 425.15266535 94.4232001 346.18844292999995a34.07407004 34.07407004 0 0 1 59.57120957-33.10052509c44.51533786 80.12274143 120.06728613 126.83829089 224.56272272 138.84209885a500.79633784 500.79633784 0 0 0 133.52167584-3.55343829l89.09395698-262.33626325h191.33076955l93.31427334 329.03868796 452.01687369 53.31618347a34.07407004 34.07407004 0 0 1 29.84401758 37.8270857zM501.73976187 518.70545791a564.74363123 564.74363123 0 0 1-128.51278775 1.2023281L323.09428247 583.76259238l209.73076694 33.32930823z"  horiz-adv-x="1634" />

    
    <glyph glyph-name="housing-price" unicode="&#58896;" d="M682.487467 626.0689070000001h-78.162774l-44.533333-81.988694c-24.551253-46.132907-39.56736-76.735147-45.162667-91.92192h-1.599146c-12.445867 28.261973-42.363733 86.384213-89.524907 173.910187l-83.414613 0.000427 110.135466-189.211734h-132.458666v-61.320106h155.18336v-84.498774H317.7664v-62.005333h155.183787v-122.980267h77.077333v122.980267h149.700693v62.005333h-149.758293v84.498774h149.700693v61.26336h-128.404906l111.220906 189.26848h0.00128z m290.312106 180.47488H711.505067v-69.44h190.270293v-233.255254h68.869973l2.153814 302.695254z m-2.882986-847.970134v261.29408h-69.44v-190.272H667.221333v-68.869973l302.695254-2.152107z m-918.715734 2.88256h261.294934v69.44H122.22464v233.254827H53.354667L51.2-38.54378699999995z m2.88256 847.970134v-261.294507h69.44V738.404693H356.778667V807.27424l-302.695254 2.152107z"  horiz-adv-x="1024" />

    
    <glyph glyph-name="massif" unicode="&#59013;" d="M128 742.2464v-281.2928c0 0.1024 307.0464-0.1536 307.0464-0.1536-0.1024 0 0.1536 307.0464 0.1536 307.0464 0-0.1024-281.4464 0.1536-281.4464 0.1536a25.3952 25.3952 0 0 1-25.7536-25.7536z m-51.2 0c0 42.6496 34.048 76.9536 76.9536 76.9536h281.2928c28.2624 0 51.3536-23.296 51.3536-51.3536v-306.8928c0-28.2624-23.296-51.3536-51.3536-51.3536H128.1536A51.6096 51.6096 0 0 0 76.8 460.9536V742.2464zM588.8 460.9536c0 0.1024 307.0464-0.1536 307.0464-0.1536-0.1024 0 0.1536 281.4464 0.1536 281.4464a25.3952 25.3952 0 0 1-25.7536 25.7536h-281.2928c0.1024 0-0.1536-307.0464-0.1536-307.0464z m-51.2 306.8928c0 28.2624 23.296 51.3536 51.3536 51.3536h281.2928c42.6496 0 76.9536-34.048 76.9536-76.9536v-281.2928c0-28.2624-23.296-51.3536-51.3536-51.3536h-306.8928A51.6096 51.6096 0 0 0 537.6 460.9536V767.8464zM128 25.753600000000006c0-14.5408 11.264-25.7536 25.7536-25.7536h281.2928c-0.1024 0 0.1536 307.0464 0.1536 307.0464 0-0.1024-307.0464 0.1536-307.0464 0.1536 0.1024 0-0.1536-281.4464-0.1536-281.4464z m-51.2 281.2928c0 28.2624 23.296 51.3536 51.3536 51.3536h306.8928c28.2624 0 51.3536-23.296 51.3536-51.3536v-306.8928c0-28.2624-23.296-51.3536-51.3536-51.3536H153.7536A76.5952 76.5952 0 0 0 76.8 25.753600000000006v281.2928zM588.8 0.15359999999998308c0 0.1024 281.4464-0.1536 281.4464-0.1536 14.5408 0 25.7536 11.264 25.7536 25.7536v281.2928c0-0.1024-307.0464 0.1536-307.0464 0.1536 0.1024 0-0.1536-307.0464-0.1536-307.0464z m-51.2 306.8928c0 28.2624 23.296 51.3536 51.3536 51.3536h306.8928c28.2624 0 51.3536-23.296 51.3536-51.3536v-281.2928c0-42.6496-34.048-76.9536-76.9536-76.9536h-281.2928a51.6096 51.6096 0 0 0-51.3536 51.3536v306.8928z"  horiz-adv-x="1024" />

    
    <glyph glyph-name="restaurant" unicode="&#59556;" d="M694.0899552 234.06364480000002l-2.2983104 1.4563552c-1.50186667 0.95573333-10.6723552 6.59911147-13.44853333 8.35128853-5.68888853 3.57262187-10.39928853 6.7356448-15.01866667 10.05795627-59.4147552 42.89422187-86.8124448 114.64248853-82.6936896 262.73564373 5.82542187 209.7152 97.62133333 321.08088853 227.35075627 322.42346667L812.0547552 839.11111147a3074.2755552 3074.2755552 0 0 0 35.49866667 0.06826666l4.8924448-0.02275626a45.6704 45.6704 0 0 0 45.6476448-45.5111104l0.70542186-796.39893334A68.3804448 68.3804448 0 0 0 830.464-71.11111146999997h-67.9708448a68.15288853 68.15288853 0 0 0-68.4032 68.26666667V234.04088852999996zM284.4444448 793.5089781300001V497.77777813a22.7555552 22.7555552 0 0 0-45.51111147 0V793.48622187H170.6211552l-0.75093333-364.31644374c-0.06826667-29.35466667 11.0819552-58.8003552 29.4684448-82.62542293 14.81386667-19.18293333 32.26737813-31.17511147 39.5264-31.1751104a22.7555552 22.7555552 0 0 0 22.7555552-22.66453333l0.7964448-252.33635627a67.08337813 67.08337813 0 0 1 67.9936-67.1744 69.35893333 69.35893333 0 0 1 68.08462186 69.35893333l-0.79644373 249.99253334a22.7555552 22.7555552 0 0 0 22.7555552 22.84657813c34.13333333 0 66.62826667 49.47057813 66.9468448 113.91431147L489.19893333 793.6 420.97777813 793.5772448V497.77777813a22.7555552 22.7555552 0 0 0-45.51111146 0V793.55448853l-91.02222187-0.0455104zM812.4188448 793.6L808.45937813 793.6c-102.94613333-1.06951147-177.1292448-91.09048853-182.34026666-278.16391147-3.73191147-134.30328853 18.13617813-191.60177813 63.85208853-224.59733333 3.73191147-2.6851552 7.71413333-5.3248 12.62933333-8.4195552 2.57137813-1.6384 11.6508448-7.23626667 13.3347552-8.30577813 5.7344-3.59537813 10.12622187-6.48533333 14.336-9.55733334l9.32977814-6.82666666V-2.8444448000000193c0-12.6748448 10.08071147-22.7555552 22.89208853-22.7555552h67.9708448c12.58382187 0 22.84657813 10.28551147 22.82382187 22.80106667l-1.0467552 796.4444448h-4.86968854c-11.264 0.06826667-23.48373333 0.04551147-34.95253333-0.04551147z m-595.5128896-753.36817813l-0.75093333 234.38222293c-45.80693333 18.4547552-91.9324448 87.76817813-91.7959104 154.6467552l0.75093333 364.3164448A45.4656 45.4656 0 0 0 170.66666667 839.11111147h318.57777813c25.28142187 0 45.55662187-20.48 45.44284373-45.71591147l-1.82044373-364.3164448c-0.36408853-75.86702187-37.20533333-141.17546667-89.61137813-156.03484373L444.0064 42.66666667000004c0.2048-62.60053333-50.3580448-114.11911147-112.93582187-115.00657814a112.59448853 112.59448853 0 0 0-114.16462293 112.54897814z"  horiz-adv-x="1024" />

    
    <glyph glyph-name="sports" unicode="&#58882;" d="M172.6228025 44.622802500000034c-187.46707125 187.43707125-187.46707125 491.36232281 0 678.79939406 187.46707125 187.43707125 491.36232281 187.43707125 678.79939406 0 187.46707125-187.46707125 187.46707125-491.36232281 0-678.79939406C663.98512531-142.84426781000002 360.08987375-142.84426781000002 172.6228025 44.622802500000034zM95.34401 430.65677063c88.04862469-3.62994375 175.04726531 24.44961844 243.59619375 84.0286875L194.91245469 658.71320719C137.46335188 592.50424219 104.4938675 512.64549 95.34401 430.65677063zM380.87954844 557.5847878100001c55.55913188 69.02892187 79.94875125 155.27757375 74.60883469 241.79622188-78.50877375-10.61983406-154.61758406-43.13932594-218.15659126-98.24846531L380.87954844 557.5847878100001zM786.71320719 701.13254438c-77.42879063 67.19895-173.48728969 101.15841938-269.84578406 102.2684025 7.34988562-104.21837156-22.82964375-208.316745-91.16857594-290.63545876L512.03749906 426.45683625 786.71320719 701.13254438zM469.61816188 384.0075l-85.85865844 85.85865844c-81.29872969-72.11887313-185.51710125-105.44835281-290.66545875-100.3184325 3.17995031-93.118545 36.86942437-185.39710313 101.84840906-260.24593406L469.61816188 384.0075zM786.71320719 66.88245469000003l-146.15771625 146.18771625c-59.81906531-70.67889562-87.89862656-158.72752031-84.47868-246.08615531C638.99551531-24.28612031 719.8142525 8.833362190000003 786.71320719 66.88245469000003zM237.33179188 66.88245469000003c74.45883656-64.58899125 166.16740406-98.24846531 258.74595749-101.78841-3.89993906 103.31838562 30.02953125 207.44675906 101.99840625 290.3954625L512.03749906 341.58816281 237.33179188 66.88245469000003zM829.13254438 658.71320719L554.45683625 384.0075l85.97865656-85.97865656c82.97870344 71.90887688 187.16707594 105.98834437 290.48546156 102.11840437C927.38100969 492.69580125 893.72153563 584.28437063 829.13254438 658.71320719zM929.06098344 339.96818812000004c-87.358635 3.3899475-175.46725875-24.56961656-246.14615438-84.41868093l146.21771532-146.24771532C887.21163688 176.23074655999994 920.33111938 257.07948280999994 929.06098344 339.96818812000004z"  horiz-adv-x="1025" />

    
    <glyph glyph-name="school" unicode="&#59674;" d="M1008.6336896 517.87279573c2.94705707 10.4784256-3.71110933 21.61175147-19.8653472 29.68887147L566.57513067 758.54912213c-27.39671573 13.75293333-71.9300224 13.75293333-99.32673814 0L45.05518187 547.4525162699999c-27.39671573-13.75293333-27.39671573-35.91043627 0-49.66336854l144.29664533-72.1483232V218.47362880000003h-0.10915093c0-1.85555413 0-3.71110933 0.10915093-5.56666347v-1.30980373C193.1720864 101.68284906999997 287.15046187 13.707737599999973 402.522288 13.707737599999973h229.76130027c115.6992768 0 209.89595307 88.52086187 213.1704608 198.87177707h0.10914986V426.29572587l98.78098667 49.4450688v-241.33122774h65.271856V517.87279573h-0.982352zM778.10833707 218.47362880000003h-0.10914987c-12.4431296-78.80648853-83.1724992-139.16658347-168.746304-139.16658347H425.55299307c-85.46465493 0-156.3031744 60.36009493-168.746304 139.16658347h-0.10915094V391.91339413l210.44170454-105.22085226c27.39671573-13.75293333 71.9300224-13.75293333 99.32673813 0l211.64235627 105.76660373V218.47362880000003z m72.69407466 281.8259744L561.88166933 351.96439786999997c-24.55880853-12.6614304-64.39865387-12.6614304-88.95746346 0L184.00346453 500.2996032c-24.55880853 12.6614304-24.55880853 33.07252907 0 45.6248096l289.02989227 148.33520533c24.55880853 12.55228053 64.39865387 12.55228053 88.95746347 0L850.80241173 545.9244128c24.55880853-12.55228053 24.55880853-33.07252907 0-45.6248096z"  horiz-adv-x="1024" />

    
    <glyph glyph-name="realty" unicode="&#58883;" d="M270.02092317 608.05470094h-53.77312882c-9.8584064 0-17.92437589 8.06596949-17.9243759 17.92437589v53.77312882c0 9.8584064 8.06596949 17.92437589 17.9243759 17.9243759h53.77312882c9.8584064 0 17.92437589-8.06596949 17.92437589-17.9243759v-53.77312882c0-9.8584064-8.06596949-17.92437589-17.92437589-17.92437589zM449.26468323 608.05470094h-53.77312768c-9.8584064 0-17.92437589 8.06596949-17.92437589 17.92437589v53.77312882c0 9.8584064 8.06596949 17.92437589 17.92437589 17.9243759h53.77312768c9.8584064 0 17.92437589-8.06596949 17.92437704-17.9243759v-53.77312882c0-9.8584064-8.06596949-17.92437589-17.92437704-17.92437589zM270.02092317 428.81093973h-53.77312882c-9.8584064 0-17.92437589 8.06596949-17.9243759 17.92437704v53.77312768c0 9.8584064 8.06596949 17.92437589 17.9243759 17.92437589h53.77312882c9.8584064 0 17.92437589-8.06596949 17.92437589-17.92437589v-53.77312768c0-9.8584064-8.06596949-17.92437589-17.92437589-17.92437704zM449.26468323 428.81093973h-53.77312768c-9.8584064 0-17.92437589 8.06596949-17.92437589 17.92437704v53.77312768c0 9.8584064 8.06596949 17.92437589 17.92437589 17.92437589h53.77312768c9.8584064 0 17.92437589-8.06596949 17.92437704-17.92437589v-53.77312768c0-9.8584064-8.06596949-17.92437589-17.92437704-17.92437704zM270.02092317 249.56717965999997h-53.77312882c-9.8584064 0-17.92437589 8.06596949-17.9243759 17.92437589v53.77312768c0 9.8584064 8.06596949 17.92437589 17.9243759 17.92437704h53.77312882c9.8584064 0 17.92437589-8.06596949 17.92437589-17.92437704v-53.77312768c0-9.8584064-8.06596949-17.92437589-17.92437589-17.92437589zM758.46017138-99.95815367h-403.29846215c-19.71681394 0-35.84875179 16.13193899-35.84875179 35.84875178s16.13193899 35.84875179 35.84875179 35.84875179c17.02815744 0 31.36765838 14.33950094 31.36765838 31.36765839v403.29846214C386.52936761 462.86725461 433.13274539 509.47063239 489.59452957 509.47063239h403.29846214c19.71681394 0 35.84875179-16.13193899 35.84875179-35.84875178s-16.13193899-35.84875179-35.84875179-35.84875293c-17.02815744 0-31.36765838-14.33950094-31.36765838-31.36765725v-403.29846214c0-56.46178418-46.60337778-103.06516195-103.06516195-103.06516196z m-304.7143936 71.69750357h304.7143936c17.02815744 0 31.36765838 14.33950094 31.36765724 31.36765839v403.29846214c0 10.75462599 1.79243805 21.50925085 4.48109455 31.36765725h-304.7143936c-17.02815744 0-31.36765838-14.33950094-31.36765725-31.36765725v-403.29846214c0-10.75462599-1.79243805-21.50925085-4.48109454-31.36765839zM725.30007495 228.05792768000003H523.65084445c-15.23571939 0-26.88656384 11.65084445-26.88656384 26.88656498s11.65084445 26.88656384 26.88656384 26.88656384h201.6492305c15.23571939 0 26.88656384-11.65084445 26.88656384-26.88656384s-12.5470629-26.88656384-26.88656384-26.88656498zM725.30007495 142.91714162000005H523.65084445c-15.23571939 0-26.88656384 11.65084445-26.88656384 26.88656384s11.65084445 26.88656384 26.88656384 26.88656497h201.6492305c15.23571939 0 26.88656384-11.65084445 26.88656384-26.88656497s-12.5470629-26.88656384-26.88656384-26.88656384zM624.0273499 26.408697169999982c-15.23571939 0-26.88656384 11.65084445-26.88656384 26.88656384V254.94449266000004c0 15.23571939 11.65084445 26.88656384 26.88656384 26.88656384s26.88656384-11.65084445 26.88656498-26.88656384v-201.64923165c0-14.33950094-11.65084445-26.88656384-26.88656498-26.88656384zM624.0273499 228.05792768000003c-7.1697499 0-13.44328249 2.6886565-18.82059435 8.06596949L503.93403051 337.39662222000004c-10.75462599 10.75462599-10.75462599 27.78278343 0 37.64118983 10.75462599 10.75462599 27.78278343 10.75462599 37.64118983 0l81.55591111-81.55591111 81.55591111 81.55591111c10.75462599 10.75462599 27.78278343 10.75462599 37.64118983 0 10.75462599-10.75462599 10.75462599-27.78278343 0-37.64118983L642.84794539 236.12389716999996c-5.37731299-5.37731299-11.65084445-8.06596949-18.82059549-8.06596949zM892.89299171 437.77312768c-19.71681394 0-35.84875179 16.13193899-35.84875292 35.84875293s16.13193899 35.84875179 35.84875292 35.84875178 35.84875179-16.13193899 35.84875179-35.84875178-16.13193899-35.84875179-35.84875179-35.84875293zM892.89299171 473.62188061c-36.74497138 0-67.21641017-30.47143879-67.21641016-67.21641018v-134.43282033h134.43282034v134.43282033c0 36.74497138-30.47143879 67.21641017-67.21641018 67.21641018zM960.10940189 236.12389716999996h-134.43282034c-19.71681394 0-35.84875179 16.13193899-35.84875293 35.84875293v134.43282033c0 56.46178418 46.60337778 103.06516195 103.06516309 103.06516196S995.95815367 462.86725461 995.95815367 406.40547043v-134.43282033c0-19.71681394-16.13193899-35.84875179-35.84875178-35.84875293z m-98.58406856 71.69750472h62.73531677v98.58406854c0 17.02815744-14.33950094 31.36765838-31.36765839 31.36765725s-31.36765838-14.33950094-31.36765838-31.36765725v-98.58406854zM422.37811939 79.2856064H63.89059811c-19.71681394 0-35.84875179 16.13193899-35.84875178 35.84875293V832.10940189c0 19.71681394 16.13193899 35.84875179 35.84875178 35.84875178h537.7312825c19.71681394 0 35.84875179-16.13193899 35.84875178-35.84875178v-358.48752128c0-19.71681394-16.13193899-35.84875179-35.84875178-35.84875293H489.59452957c-17.02815744 0-31.36765838-14.33950094-31.36765725-31.36765725V115.13435933000005c0-19.71681394-16.13193899-35.84875179-35.84875293-35.84875293z m-322.63876949 71.69750471h286.79001771V406.40547043C386.52936761 462.86725461 433.13274539 509.47063239 489.59452957 509.47063239H565.77312768V796.2606501H99.7393499v-645.27753899z"  horiz-adv-x="1024" />

    
    <glyph glyph-name="house" unicode="&#58992;" d="M992 504.02477813v60.06194531H685.94177188V864H415.960355v-60.06194531h209.91947156v-396.64670625h-89.79558094v-60.06194531h239.85133125v60.06194531h-89.99380499v96.73342969H931.93805469V-35.938054689999944H685.94177188v179.98761094h-60.06194532v-179.98761094H92.06194531V347.22940313000004h179.98761094v60.06194531H92.06194531V803.93805469h179.98761094V864H32v-960h960V504.02477813z"  horiz-adv-x="1024" />

    
    <glyph glyph-name="empty-star" unicode="&#58893;" d="M229.1-116.20000000000005c-10.3 0-20.6 3.2-29.4 9.6-15.7 11.4-23.5 30.4-20.2 49.5l47.2 277.7c1.6 9.2-1.4 18.5-8 24.9l-200 196.7C4.9 455.7 0.4 475 6.7 492.6c7.3 20.1 27 33.5 52.8 35.9l270 39.6c3.8 2.7 10.5 8.6 14.2 16L467.3 836.8c8.5 17.5 25.9 28.3 45.3 28.3s36.7-10.8 45.3-28.3l123.6-252.6c4-8.2 11.8-13.9 20.7-15.2l276.4-40.5c19.1-2.8 34.6-15.9 40.6-34.3s1.2-38.3-12.6-51.9l-200-196.7c-6.6-6.5-9.6-15.8-8-24.9L845.7-57c3.3-19.2-4.5-38.2-20.2-49.5-15.7-11.3-36-12.7-53-3.7l-247.3 131c-7.9 4.2-17.4 4.2-25.4 0l-247.2-131.1c-7.4-3.9-15.5-5.9-23.5-5.9zM84.2 467.5l179.2-176.3c21.5-21.1 31.3-51.5 26.2-81.3L247-40.799999999999955l222.8 118.2c26.7 14.2 58.6 14.2 85.3 0L778-40.799999999999955l-42.6 250.7c-5.1 29.8 4.7 60.2 26.2 81.3L942.4 469l-249.6 36.6c-29.8 4.4-55.6 23.2-68.9 50.4L512.5 783.6 401.2 556c-11.6-23.7-34-42.4-50-48.6l-3.3-1.3-263.7-38.6zM500.3 808.6z"  horiz-adv-x="1024" />

    
    <glyph glyph-name="business" unicode="&#59055;" d="M588.26 540.24c0-43.5 35.28-79.08 79.02-79.08a78.96 78.96 0 0 1 0 157.98 79.08 79.08 0 0 1-79.02-78.9M509.48 540.24c23.52 0 39.48 15.72 39.48 39.18 0 23.64-15.96 39.72-39.48 39.72a237.42 237.42 0 0 1-236.52-236.46 237.24 237.24 0 0 1 236.52-236.52 237.12 237.12 0 0 1 236.46 236.52c0 23.58-15.54 39.3-39.36 39.3-23.7 0-39.24-15.72-39.24-39.3a158.52 158.52 0 0 0-157.86-158.04 158.52 158.52 0 0 0-157.74 158.04 158.46 158.46 0 0 0 157.74 157.56zM509.48 855.66c-82.68 0-165.6-24-236.52-63.18-19.62-12.12-23.52-35.64-15.72-55.08 11.82-19.86 35.4-24.06 55.26-11.94 59.1 31.38 126.12 51.24 196.98 51.24 216.96 0 394.32-177.48 394.32-394.08 0-217.2-177.36-394.62-394.32-394.62-216.84 0-394.26 177.42-394.26 394.62 0 70.74 19.86 137.7 51.24 196.8 11.82 19.8 3.96 43.44-11.76 55.38-15.72 11.58-43.38 3.84-55.2-15.72C59.96 548.04 36.44 465.24 36.44 382.62c0-260.64 212.94-473.04 473.04-473.04 260.1 0 473.1 212.4 473.1 473.04 0 260.1-213 473.04-473.1 473.04z"  horiz-adv-x="1024" />

    
    <glyph glyph-name="home" unicode="&#58892;" d="M950.016 385.408c0.384 1.664 1.024 2.432 1.792 2.432-7.424 11.264-11.52 17.664-12.288 19.2L554.112 799.36c-12.288 12.8-26.24 18.816-41.728 18.048-17.152 0.768-31.872-5.248-44.16-18.048L83.712 407.168c-1.664-1.664-5.76-8.064-12.288-19.2l1.28-2.432 1.28-2.432h120.32v-364.544c0-17.664 5.248-33.664 16-48.128 10.624-14.464 24.576-21.632 41.728-21.632h100.736V205.05600000000004c0 77.056 31.488 115.456 94.592 115.456h128.896c62.208 0 93.312-38.528 93.312-115.456V-51.200000000000045h100.736c17.152 0 31.36 7.296 42.368 21.632 11.008 14.464 16.512 30.464 16.512 48.128V383.10400000000004h119.168c0.768 0 1.28 0.768 1.664 2.304z m64.512-25.216c-11.52-26.496-33.536-39.68-66.304-39.68h-56.448v-301.952c0-35.328-11.52-66.176-34.432-92.672-22.912-26.496-51.968-39.68-87.168-39.68H606.848V231.42399999999998c0 1.664-0.256 4.608-0.64 8.96-0.384 4.48-1.408 7.168-3.072 8.448-1.664 1.152-3.456 2.816-5.504 4.864-2.048 2.048-4.992 3.456-8.576 4.224-3.712 0.768-7.936 1.152-12.928 1.152H447.232c-5.76 0-10.24-0.384-13.568-1.152-3.328-0.768-6.144-2.176-8.576-4.224-2.432-2.048-4.352-3.584-5.504-4.864-1.28-1.152-2.048-3.968-2.432-8.448-0.384-4.352-0.768-7.424-1.28-8.96-0.384-1.536-0.384-5.632 0-12.032s0.64-11.264 0.64-14.464V-113.91999999999996H252.032c-34.432 0-63.232 13.184-86.528 39.68-23.296 26.496-34.944 57.344-34.944 92.672v302.08H73.984c-31.872 0-54.016 13.184-66.304 39.68-12.288 28.032-2.816 58.112 28.288 90.24L421.504 842.624c24.576 24.832 54.4 37.248 89.6 37.248s65.536-12.416 90.88-37.248l384.384-392.192c31.872-32.128 41.216-62.08 28.16-90.24z m0 0"  horiz-adv-x="1024" />

    
    <glyph glyph-name="dropdown" unicode="&#58884;" d="M919.8 514.9L555.2 116.20000000000005a57.377 57.377 0 0 0-43.1-19.5c-16.5 0-32.2 7.1-43.1 19.5L104.4 514.9c-17.8 18.8-23.3 46.2-14.1 70.4s31.4 41.1 57.2 43.4h728.9c25.9-2.2 48.2-19 57.4-43.3 9.3-24.3 3.8-51.6-14-70.5z"  horiz-adv-x="1024" />

    
    <glyph glyph-name="loop" unicode="&#59006;" d="M512 534a60 60 0 1 1 0 120 60 60 0 0 1 0-120z m0-60a120 120 0 1 0 0 240 120 120 0 0 0 0-240zM642.26 324a30 30 0 0 0 0 60H692a120 120 0 0 0 120-120v-120a120 120 0 0 0-120-120H332a120 120 0 0 0-120 120v120a120 120 0 0 0 120 120h43.62a30 30 0 1 0 0-60H332a60 60 0 0 1-60-60v-120a60 60 0 0 1 60-60h360a60 60 0 0 1 60 60v120a60 60 0 0 1-60 60h-49.74z m75.3 120a30 30 0 1 0 0 60H812a180 180 0 0 0 180-180v-240a180 180 0 0 0-180-180H212a180 180 0 0 0-180 180V324a180 180 0 0 0 180 180h90.6a30 30 0 1 0 0-60H212a120 120 0 0 1-120-120v-240a120 120 0 0 1 120-120h600a120 120 0 0 1 120 120V324a120 120 0 0 1-120 120h-94.44zM534.02 181.44000000000005a30 30 0 0 0-44.04 0 1863.96 1863.96 0 0 0-38.28 43.56 1915.98 1915.98 0 0 0-83.88 105.42 1231.8 1231.8 0 0 0-60.72 89.88C265.4 488.94 242 547.0799999999999 242 594a270 270 0 0 0 540 0c0-46.92-23.4-105.06-65.1-173.7-17.46-28.8-37.92-58.92-60.72-89.88a1915.98 1915.98 0 0 0-122.16-148.98zM526.64 264c27.72 32.46 55.44 67.02 81.18 102 21.84 29.7 41.34 58.38 57.84 85.5 36.42 60 56.34 109.56 56.34 142.56a210 210 0 0 1-420 0c0-33 19.92-82.62 56.4-142.56 16.44-27.12 35.94-55.8 57.78-85.44A1856.94 1856.94 0 0 1 512 246.89999999999998c4.44 5.1 9.36 10.8 14.64 17.04z"  horiz-adv-x="1024" />

    
    <glyph glyph-name="metro" unicode="&#58977;" d="M267.176715 512.798337h489.64657c17.031185 0 31.933472 14.902287 31.933472 31.933472v106.444906C788.756757 704.399168 746.178794 746.977131 692.956341 746.977131h-361.912682C277.821206 746.977131 235.243243 704.399168 235.243243 651.1767150000001v-106.444906c0-17.031185 14.902287-31.933472 31.933472-31.933472zM724.889813 651.1767150000001V576.665281h-170.31185v106.444906h138.378378c17.031185 0 31.933472-14.902287 31.933472-31.933472z m-425.779626 0c0 17.031185 14.902287 31.933472 31.933472 31.933472H490.711019v-106.444906h-191.600832v74.511434zM288.465696 246.68607099999997m-53.222453 0a53.222453 53.222453 0 1 1 106.444907 0 53.222453 53.222453 0 1 1-106.444907 0ZM735.534304 246.68607099999997m-53.222454 0a53.222453 53.222453 0 1 1 106.444907 0 53.222453 53.222453 0 1 1-106.444907 0ZM971.841996-72.64864899999998L869.654886 44.440747999999985h36.191268c17.031185 0 31.933472 14.902287 31.933472 31.933472v617.380458C937.779626 806.586279 846.237006 896 735.534304 896h-447.068608C177.762994 896 86.220374 806.586279 86.220374 693.754678v-617.380458c0-17.031185 14.902287-31.933472 31.933472-31.933472h51.093555l-114.960499-114.960499c-12.773389-12.773389-12.773389-31.933472 0-44.70686 4.257796-8.515593 12.773389-10.644491 21.288982-10.644491s17.031185 2.128898 23.417879 8.515593l159.66736 159.667359h525.837837l138.378379-159.667359c6.386694-6.386694 14.902287-10.644491 23.417879-10.644491 8.515593 0 14.902287 2.128898 21.288982 8.515593 14.902287 12.773389 17.031185 34.06237 4.257796 46.835758zM150.087318 693.754678C150.087318 770.39501 211.825364 832.133056 288.465696 832.133056h447.068608C812.174636 832.133056 873.912682 770.39501 873.912682 693.754678V108.30769199999997H150.087318V693.754678z"  horiz-adv-x="1024" />

    
    <glyph glyph-name="upward" unicode="&#58919;" d="M919.8 274.29999998999995L555.2 672.99999999a57.377 57.377 0 0 1-43.1 19.5c-16.5 0-32.2-7.1-43.1-19.5L104.4 274.29999998999995c-17.8-18.8-23.3-46.2-14.1-70.4s31.4-41.1 57.2-43.4h728.9c25.9 2.2 48.2 19 57.4 43.3 9.3 24.3 3.8 51.7-14 70.5z"  horiz-adv-x="1024" />

    
    <glyph glyph-name="circle" unicode="&#59029;" d="M512 864C247.35999969 864 32 648.64000031 32 384c0-264.72 215.28-480 480-480s480 215.28 480 480c0 264.64000031-215.28 480-480 480z m0-891.12A411.6 411.6 0 0 0 100.88 384 411.6 411.6 0 0 0 512 795.12 411.6 411.6 0 0 0 923.12 384 411.6 411.6 0 0 0 512-27.120000000000005z m0 583.27999969A172.39999969 172.39999969 0 0 1 339.84000031 384c0-94.96000031 77.20000031-172.15999969 172.15999969-172.15999969A172.39999969 172.39999969 0 0 1 684.15999969 384 172.39999969 172.39999969 0 0 1 512 556.15999969z"  horiz-adv-x="1024" />

    
    <glyph glyph-name="layer" unicode="&#58953;" d="M947.12533333 233.15200000000004c-6.10133333 0-11.90186667-1.24373333-17.216-3.44853333l-0.0064 0.02453333-0.20373333-0.07893333c-0.05333333-0.0352-0.12053333-0.05973333-0.192-0.09066667L511.744 56.69546666999997l-417.77493333 172.864c-0.05973333 0.032-0.12586667 0.05333333-0.192 0.09066666l-0.20373334 0.07893334-0.00533333-0.02346667a44.79253333 44.79253333 0 0 1-17.21813333 3.4464c-24.8736 0-45.03466667-20.17066667-45.04-45.04533333 0-18.77333333 11.5008-34.84373333 27.82293333-41.6v-0.01706667l434.98666667-179.99893333c0.06613333-0.02346667 0.1312-0.048 0.192-0.07786667l0.21013333-0.07893333v0.01813333c5.3088-2.19733333 11.10933333-3.4464 17.22346667-3.4464 6.09493333 0 11.90826667 1.248 17.21066666 3.4464v-0.01813333l0.2112 0.07893333c0.06506667 0.02986667 0.1312 0.05333333 0.192 0.07786667l434.98453334 179.99893333v0.01706667c16.32853333 6.75626667 27.81653333 22.82666667 27.81653333 41.6 0 24.87146667-20.15466667 45.04533333-45.03466667 45.04533333z m0 195.16586667a44.78933333 44.78933333 0 0 1-17.216-3.44106667l-0.0064 0.02346667-0.20373333-0.0832c-0.0608-0.02453333-0.12693333-0.0608-0.192-0.07893334L511.744 251.86133332999998 93.97013333 424.736c-0.05973333 0.01813333-0.12586667 0.0544-0.1984 0.08l-0.1984 0.0832-0.00533333-0.02346667a44.78933333 44.78933333 0 0 1-17.21813333 3.44106667c-24.88 0-45.04-20.16533333-45.04-45.03893333 0-18.76693333 11.5008-34.83093333 27.82293333-41.6v-0.01706667l434.98666667-179.99253333c0.06613333-0.03093333 0.1312-0.05333333 0.192-0.08426667l0.21013333-0.08426667v0.02453334a44.77546667 44.77546667 0 0 1 17.22346667-3.44746667 44.76053333 44.76053333 0 0 1 17.21066666 3.44746667v-0.02453334l0.2112 0.08426667c0.064 0.03093333 0.1312 0.05333333 0.192 0.08426667l434.98453334 179.99253333v0.01706667c16.3232 6.76906667 27.81653333 22.82666667 27.81653333 41.6 0 24.8736-20.16 45.03893333-45.03466667 45.03893333zM59.13386667 536.8597333299999v-0.02453333l434.98666666-179.99253333c0.06613333-0.03093333 0.1312-0.05333333 0.192-0.08426667l0.21013334-0.0832v0.01706667a44.86933333 44.86933333 0 0 1 34.43413333 0v-0.01706667l0.2112 0.0832c0.064 0.03093333 0.1312 0.05333333 0.192 0.08533333l434.98453333 179.99146667v0.02453333c16.3232 6.76266667 27.81653333 22.82026667 27.81653334 41.59253334 0 18.77333333-11.49333333 34.83733333-27.82293334 41.6l0.00533334 0.02346666-434.98346667 179.99786667a0.89066667 0.89066667 0 0 0-0.192 0.07893333l-0.2112 0.07786667-0.0064-0.01066667a44.97706667 44.97706667 0 0 1-17.21173333 3.43466667 44.9888 44.9888 0 0 1-17.21706667-3.43466667l-0.00533333 0.01066667-0.2048-0.07786667a0.79146667 0.79146667 0 0 0-0.192-0.07893333L59.1328 620.07573333v-0.02453333c-16.32213333-6.76266667-27.82293333-22.82666667-27.82293333-41.6 0-18.77226667 11.5008-34.82986667 27.82293333-41.59146667z"  horiz-adv-x="1024" />

    
    <glyph glyph-name="polygon" unicode="&#58959;" d="M942.31466667 169.72266666999997v319.328c31.3056 10.51946667 53.92746667 40.11733333 53.92746666 74.92266666 0 43.57973333-35.45386667 79.03466667-79.0336 79.03466667-34.80426667 0-64.4032-22.624-74.92266666-53.9296l-660.57386667 218.45333333c-10.5184 31.30666667-40.11733333 53.9296-74.92266667 53.9296-43.57866667 0-79.03253333-35.45386667-79.03253333-79.03466666 0-34.80533333 22.62293333-64.4032 53.92746667-74.92266667l109.22666666-647.008c-31.30453333-10.51946667-53.92746667-40.11946667-53.92746666-74.92266667 0-43.5808 35.45386667-79.03466667 79.03253333-79.03466666 34.80426667 0 64.40426667 22.624 74.92266667 53.92853333l551.34933333 109.22666667c10.5184-31.30666667 40.1184-53.92853333 74.92266667-53.92853334 43.57866667 0 79.03253333 35.45386667 79.03253333 79.03466667-0.00106667 34.8032-22.62293333 64.40533333-53.92853333 74.92266667z m-100.02666667-49.8176l-551.34933333-109.22666667c-7.8656 23.41226667-26.40426667 41.952-49.81653334 49.81866667l-109.22666666 647.008c23.4112 7.8656 41.94986667 26.40426667 49.81653333 49.81653333l660.576-218.45333333c7.86666667-23.41226667 26.40533333-41.95093333 49.81653333-49.8176v-319.328c-23.41333333-7.86666667-41.952-26.40533333-49.81653333-49.8176z"  horiz-adv-x="1024" />

    
    <glyph glyph-name="point" unicode="&#59156;" d="M918.129778 484.124444a101.148444 101.148444 0 0 0 0-200.248888C872.504889 80.66844400000002 691.029333-71.11111100000005 474.083556-71.11111100000005c-251.363556 0-455.111111 203.747556-455.111112 455.111111s203.747556 455.111111 455.111112 455.111111c216.945778 0 398.421333-151.808 444.046222-354.986667z m-50.574222-5.717333C825.031111 656.298667 665.002667 788.536889 474.083556 788.536889 250.652444 788.536889 69.518222 607.431111 69.518222 384c0-223.431111 181.134222-404.536889 404.565334-404.536889 190.919111 0 350.947556 132.266667 393.472 310.129778a101.176889 101.176889 0 0 0 0 188.814222z m-393.472-170.268444a75.861333 75.861333 0 1 0 0 151.722666 75.861333 75.861333 0 0 0 0-151.722666z"  horiz-adv-x="1024" />

    
    <glyph glyph-name="map" unicode="&#58913;" d="M320.85333333 793.6v-68.26666667l334.50666667-122.88c13.65333333-6.82666667 27.30666667-13.65333333 47.78666667-13.65333333 13.65333333 0 20.48 0 34.13333333 6.82666667l184.32 40.96v-539.30666667l-218.45333333-54.61333333-334.50666667 122.88c-20.48 6.82666667-34.13333333 13.65333333-47.78666667 13.65333333-13.65333333 0-20.48 0-34.13333333-6.82666667l-184.32-40.96V670.72L320.85333333 725.33333333V793.6m0 0H307.2l-218.45333333-54.61333333c-34.13333333-6.82666667-54.61333333-34.13333333-54.61333334-68.26666667v-539.30666667c0-40.96 34.13333333-68.26666667 68.26666667-68.26666666h13.65333333l184.32 40.96h13.65333334c6.82666667 0 13.65333333 0 20.48-6.82666667l334.50666666-122.88c6.82666667 0 13.65333333-6.82666667 20.48-6.82666667h13.65333334l218.45333333 54.61333334c34.13333333 6.82666667 54.61333333 34.13333333 54.61333333 68.26666666v546.13333334c0 40.96-34.13333333 68.26666667-68.26666666 68.26666666h-13.65333334l-177.49333333-40.96h-13.65333333c-6.82666667 0-13.65333333 0-20.48 6.82666667l-341.33333334 116.05333333c-6.82666667 0-13.65333333 6.82666667-20.48 6.82666667zM443.73333333 281.6v273.06666667c0 20.48-13.65333333 34.13333333-34.13333333 34.13333333s-34.13333333-13.65333333-34.13333333-34.13333333v-273.06666667c0-20.48 13.65333333-34.13333333 34.13333333-34.13333333s34.13333333 13.65333333 34.13333333 34.13333333z m273.06666667-68.26666667v273.06666667c0 20.48-13.65333333 34.13333333-34.13333333 34.13333333s-34.13333333-13.65333333-34.13333334-34.13333333v-273.06666667c0-20.48 13.65333333-34.13333333 34.13333334-34.13333333s34.13333333 13.65333333 34.13333333 34.13333333z"  horiz-adv-x="1024" />

    
    <glyph glyph-name="road" unicode="&#58956;" d="M333.10272107 862.67847147c-14.40783467 4.25685973-29.68887147-3.92940907-33.9457312-18.33724374L30.97479787-57.45823253000003c-4.25685973-14.40783467 3.92940907-29.68887147 18.33724373-33.9457312 2.6196064-0.76405227 5.2392128-1.09150293 7.74966827-1.09150294 11.78822827 0 22.59410453 7.6405184 26.19606293 19.53789654l268.18219307 901.79946133c4.25685973 14.40783467-3.92940907 29.57972053-18.3372448 33.83658027zM997.6095136-57.45823253000003l-268.18219307 901.79946026c-4.25685973 14.40783467-19.53789653 22.7032544-33.9457312 18.33724374-14.40783467-4.25685973-22.7032544-19.53789653-18.33724373-33.9457312l268.182192-901.79946027c3.49280853-11.89737813 14.40783467-19.53789653 26.19606293-19.53789653 2.6196064 0 5.2392128 0.32745067 7.74966934 1.09150186 14.40783467 4.47516053 22.59410453 19.64704747 18.33724373 34.05488214zM499.7751712 717.18117333h27.61501547c6.76731627 0 12.33397973 5.56666347 12.33397973 12.33397974v121.48424106c0 6.76731627-5.56666347 12.33397973-12.33397973 12.33397867h-27.61501547c-6.76731627 0-12.33397973-5.56666347-12.33397973-12.33397867v-121.48424106c0-6.76731627 5.56666347-12.33397973 12.33397973-12.33397974zM496.5006624 320.41997227h34.164032c6.76731627 0 12.33397973 5.56666347 12.33397973 12.33397973l-3.27450773 317.40896107c0 6.76731627-5.56666347 12.33397973-12.33397973 12.33397866h-27.61501547c-6.76731627 0-12.33397973-5.56666347-12.33397973-12.33397866l-3.27450774-317.40896107c0-6.76731627 5.56666347-12.33397973 12.33397867-12.33397973zM530.6646944 253.29256212999996h-34.164032c-6.76731627 0-12.33397973-5.56666347-12.33397867-12.33397973l-4.36601066-317.40896c0-6.76731627 5.56666347-12.33397973 12.33397973-12.33397973h42.89605227c6.76731627 0 12.33397973 5.56666347 12.33397973 12.33397973l-4.36601067 317.40896c0.10914987 6.76731627-5.4575136 12.33397973-12.33397973 12.33397973z"  horiz-adv-x="1024" />

    
    <glyph glyph-name="education" unicode="&#58957;" d="M669.2855264 771.64715413c0-44.53330667 31.43527573-82.73589867 75.09538027-91.35876906 43.66010453-8.6228704 87.32020907 14.73528533 104.34765013 55.88493333 17.02744107 41.14964907 2.6196064 88.52086187-34.3823328 113.18882133-37.00193813 24.66795947-86.33785707 19.75619733-117.77313173-11.6790784a94.55905493 94.55905493 0 0 1-27.28756587-66.0359072z m320.02856747-425.68602026c0 69.7470176-71.38427093 131.74436587-182.39008747 171.802512 7.31306773 37.87514027 9.8235232 76.62348373 7.53136853 115.15352533-14.8444352-13.20718187-32.63592853-22.7032544-51.8463744-27.5058656 0-24.122208-2.1830048-48.13526507-6.6581664-71.82087253-40.49474667 10.91502613-81.7535456 18.8829952-123.3397952 23.79475733-24.99541013 33.83658133-52.39212587 65.81760747-82.08099626 95.6156288 18.8829952 16.37253973 39.4032448 30.78037333 61.12414613 43.11435307-2.51045653 9.93267413-3.71110933 20.083648-3.71110933 30.3437728 0 9.93267413 1.2006528 19.75619733 3.49280853 29.3614208-36.23788693-17.57319253-69.96531733-39.9489952-100.19994027-66.47250987-90.04896533 76.7326336-179.11557867 107.73130773-239.14822293 73.02152533-60.03264427-34.70978347-77.82413653-128.03325653-56.75813547-244.4965856-111.1149664-40.05814613-182.39008747-102.0554944-182.39008746-171.802512 0-69.7470176 71.27512107-131.74436587 182.39008746-171.58421013-20.95685013-116.79077973-3.27450773-209.78680213 56.75813547-244.82403733 60.03264427-34.9280832 149.20840747-3.71110933 239.14822293 73.02152533 90.04896533-76.7326336 179.11557867-107.73130773 239.14822294-73.02152533 60.03264427 34.70978347 77.82413653 128.03325653 56.75813653 244.82403733 110.8966656 39.73069547 182.28093653 101.72804373 182.17178667 171.47506027zM743.94430613 481.19830827c-5.89411413-21.7209024-13.20718187-44.31500587-21.9392032-67.345712-7.2039168 13.75293333-14.73528533 27.5058656-22.59410346 41.47709973-7.96796907 13.97123307-16.15423893 27.28756587-24.44965867 40.3855968 24.23135787-4.03856 47.37121387-8.95032107 68.98296533-14.51698453z m-21.9392032-202.910336c8.6228704-23.35815573 15.93593813-45.73395947 21.9392032-67.345712-22.7032544-6.003264-45.73395947-10.91502613-68.98296533-14.73528534 8.29541973 13.09803093 16.4816896 26.5235136 24.44965867 40.27644694 7.96796907 13.8620832 15.4993376 27.83331627 22.59410346 41.8045504zM651.38488427 264.53503893000004c-15.2810368-26.41436373-31.5444256-52.28297493-49.00846827-77.387536-60.6875456-5.34836267-121.81169173-5.34836267-182.49923627 0-34.81893333 50.20912-65.38100693 103.36529813-91.2496192 158.70448107C354.60532267 401.40946667 385.0582464 454.45649387 419.9863296 504.66561387c60.6875456 5.34836267 121.81169173 5.34836267 182.49923733 0 34.81893333-50.20912 65.38100693-103.36529813 91.24961814-158.70448-12.98888107-27.7241664-27.06926507-54.90258133-42.3503008-81.42609494z m-140.2580864-188.829952c-16.4816896 16.80914027-32.19932693 34.3823328-47.15291307 52.71957547 15.4993376-0.65490133 31.21697493-0.982352 47.15291307-0.982352 15.93593813 0 31.65357547 0.2183008 47.15291306 0.982352-14.95358613-18.22809387-30.67122347-35.80128533-47.15291306-52.71957547zM322.84259733 236.81087252999998a1024.48435413 1024.48435413 0 0 1 24.4496576-40.6038976c-23.24900587 3.71110933-46.27971093 8.6228704-68.98296426 14.73528534 5.89411413 21.7209024 13.20718187 44.09670613 21.93920213 67.345712 7.09476693-13.97123307 14.62613547-27.7241664 22.59410453-41.47709974z m-22.59410453 176.71427307c-8.6228704 23.35815573-15.93593813 45.95226027-21.93920213 67.56401173 21.61175147 5.56666347 44.75160747 10.4784256 68.98296426 14.40783467-8.29541973-13.09803093-16.4816896-26.5235136-24.4496576-40.3855968-7.96796907-13.6437824-15.4993376-27.61501653-22.59410453-41.5862496zM558.17056107 563.3884544c-15.4993376 0.65490133-31.21697493 0.982352-47.15291307 0.98235307-15.93593813 0-31.5444256-0.2183008-47.0437632-0.98235307C478.92747093 581.7256992 494.64510827 599.29889067 511.12679787 616.10803093c16.4816896-16.80914027 32.19932693-34.3823328 47.0437632-52.71957653zM302.4314976 709.32235413c40.6038976 23.57645653 102.71039573 0 169.29205547-56.4306848-29.68887147-29.79802133-57.0855872-61.77904747-82.08099627-95.6156288-41.5862496-4.91176213-82.84504853-12.8797312-123.3397952-23.79475733-15.39018667 86.33785707-4.47516053 152.37376533 36.128736 175.84107093zM93.62704747 345.96113387c0 47.0437632 51.30062293 89.50321493 133.27246933 119.08293546 10.91502613-40.6038976 24.66795947-80.44374293 41.25879893-119.08293546-16.59083947-38.63919253-30.45292267-78.47903787-41.25879893-119.08293547C144.9276704 256.45791893 93.62704747 298.80822079999996 93.62704747 345.96113387z m208.80445013-363.2520704c-40.6038976 23.57645653-51.4097728 89.28491413-36.128736 175.51362026 40.49474667-10.91502613 81.7535456-18.8829952 123.3397952-23.79475626 24.99541013-33.7274304 52.39212587-65.59930667 82.08099627-95.39732907-66.58165973-56.53983573-128.7973088-79.7888416-169.29205547-56.32153493z m417.39060053 0c-40.6038976-23.57645653-102.71039573-0.2183008-169.29205546 56.21238506 29.57972053 29.9071712 56.97643627 61.77904747 82.08099626 95.6156288 41.69539947 4.91176213 82.84504853 12.8797312 123.44894614 23.79475734 15.2810368-86.33785707 4.36601067-152.04631467-36.23788694-175.6227712z m75.42283094 244.05998506c-10.80587627 40.6038976-24.66795947 80.44374293-41.25879894 119.08293547 16.59083947 38.63919253 30.45292267 78.47903787 41.25879894 119.0829344 81.9718464-29.57972053 133.27246933-72.03917227 133.27246826-119.0829344 0-47.0437632-51.30062293-89.394064-133.27246826-119.08293547z m0 0"  horiz-adv-x="1024" />

    
    <glyph glyph-name="square" unicode="&#58930;" d="M32-96V864h960v-960H32zM928 800H96v-832h832V800z"  horiz-adv-x="1024" />

    
    <glyph glyph-name="plate" unicode="&#58934;" d="M921.6 158.72000000000003V609.28c40.96 20.48 68.26666667 68.26666667 68.26666667 116.05333333 0 75.09333333-61.44 136.53333333-136.53333334 136.53333334-47.78666667 0-88.74666667-20.48-116.05333333-61.44H286.72C259.41333333 841.38666667 218.45333333 861.86666667 170.66666667 861.86666667c-75.09333333 0-136.53333333-61.44-136.53333334-136.53333334 0-47.78666667 27.30666667-95.57333333 68.26666667-116.05333333v-450.56c-40.96-20.48-68.26666667-68.26666667-68.26666667-116.05333333 0-75.09333333 61.44-136.53333333 136.53333334-136.53333334 47.78666667 0 95.57333333 27.30666667 116.05333333 68.26666667h450.56c20.48-40.96 68.26666667-68.26666667 116.05333333-68.26666667 75.09333333 0 136.53333333 61.44 136.53333334 136.53333334 0 47.78666667-27.30666667 95.57333333-68.26666667 116.05333333zM853.33333333 793.6c40.96 0 68.26666667-27.30666667 68.26666667-68.26666667s-27.30666667-68.26666667-68.26666667-68.26666666-68.26666667 27.30666667-68.26666666 68.26666666 27.30666667 68.26666667 68.26666666 68.26666667zM170.66666667 793.6c40.96 0 68.26666667-27.30666667 68.26666666-68.26666667s-27.30666667-68.26666667-68.26666666-68.26666666-68.26666667 27.30666667-68.26666667 68.26666666 27.30666667 68.26666667 68.26666667 68.26666667z m0-819.2c-40.96 0-68.26666667 27.30666667-68.26666667 68.26666667s27.30666667 68.26666667 68.26666667 68.26666666 68.26666667-27.30666667 68.26666666-68.26666666-27.30666667-68.26666667-68.26666666-68.26666667z m136.53333333 68.26666667c0 75.09333333-61.44 136.53333333-136.53333333 136.53333333V588.8c75.09333333 0 136.53333333 61.44 136.53333333 136.53333333v6.82666667h409.6V725.33333333c0-75.09333333 61.44-136.53333333 136.53333333-136.53333333v-409.6c-75.09333333 0-136.53333333-61.44-136.53333333-136.53333333H307.2z m546.13333333-68.26666667c-40.96 0-68.26666667 27.30666667-68.26666666 68.26666667s27.30666667 68.26666667 68.26666666 68.26666666 68.26666667-27.30666667 68.26666667-68.26666666-27.30666667-68.26666667-68.26666667-68.26666667z"  horiz-adv-x="1024" />

    
    <glyph glyph-name="street" unicode="&#58885;" d="M988.310588 302.983529h-134.324706a146.672941 146.672941 0 0 1-123.783529 120.470589V715.294118h258.108235a30.117647 30.117647 0 0 1 0 60.235294h-258.108235V865.882353a30.117647 30.117647 0 0 1-60.235294 0v-90.352941h-150.588235l-117.157648-87.94353h-361.411764a30.117647 30.117647 0 0 1 0-60.235294h152.997647v-324.367059H35.689412a30.117647 30.117647 0 0 1 0-60.235294h158.117647V-97.88235299999997a30.117647 30.117647 0 0 1 60.235294 0V242.74823500000002h313.223529a147.576471 147.576471 0 0 1 102.701177-104.508235V-97.88235299999997a30.117647 30.117647 0 0 1 60.235294 0v232.508235a146.371765 146.371765 0 0 1 120.470588 108.122353h137.035294a30.117647 30.117647 0 0 1 0 60.235294z m-423.755294 0H254.042353V627.350588h168.056471L539.858824 715.294118h130.108235v-293.345883a146.672941 146.672941 0 0 1-105.411765-118.964706z m144.564706-110.230588a87.04 87.04 0 1 0 87.04 86.738824 86.738824 86.738824 0 0 0-87.04-86.738824z"  horiz-adv-x="1024" />

    
    <glyph glyph-name="success" unicode="&#58899;" d="M512 861.1875C248.46875 861.1875 34.8125 647.53125 34.8125 384s213.65625-477.1875 477.1875-477.1875 477.1875 213.65625 477.1875 477.1875S775.53125 861.1875 512 861.1875z m275.25-317.15625L480.5 178.5c-8.4375-10.125-20.25-15.84375-32.4375-16.875-12.1875-1.03125-24.75 2.53125-34.875 10.96875l-170.625 143.15625c-20.15625 16.96875-22.78125 47.0625-5.90625 67.21875 16.96875 20.15625 47.0625 22.78125 67.21875 5.90625l134.0625-112.5 276.09375 328.96875c16.96875 20.15625 47.0625 22.78125 67.21875 5.90625 20.25-16.875 22.875-46.96875 6-67.21875z"  horiz-adv-x="1024" />

    
    <glyph glyph-name="doorway" unicode="&#58918;" d="M614.2528 83.86239999999998c0-38.98346667-31.6384-70.6208-70.6208-70.6208H155.21813334c-38.98346667 0-70.6208 31.6384-70.6208 70.6208V648.8288c0 38.98346667 31.6384 70.6208 70.6208 70.6208h388.41386666c38.98346667 0 70.6208-31.6384 70.6208-70.6208v-70.6208h70.6208V719.44853333c0 38.98346667-31.6384 70.6208-70.6208 70.6208H84.59733334c-38.98346667 0-70.6208-31.6384-70.6208-70.6208v-706.20693333c0-38.98346667 31.6384-70.6208 70.6208-70.6208h529.65546666c38.98346667 0 70.6208 31.6384 70.6208 70.6208V154.48213333h-70.6208v-70.6208z m353.104 317.79306667H700.76373334l83.968 83.968c13.80586667 13.80586667 13.80586667 36.15786667 0 49.96373333-13.80586667 13.77066667-36.1216 13.77066667-49.92853334 0L597.09333334 397.84106667c-2.7904-1.51786667-5.68533333-3.00053333-8.0864-5.4016-3.53066667-3.56586667-5.96693333-7.73333333-7.62666667-12.1472-9.3568-13.73653333-8.54506667-32.30933333 3.63733333-44.49066667 6.1792-6.1792 14.08853333-9.14453333 22.13973334-9.78133333l125.6704-126.30506667c13.24053333-13.2768 34.6752-13.2768 47.91573333 0 13.24053333 13.312 13.24053333 34.88746667 0 48.19946667l-82.69653333 83.12106666h269.312c19.52746667 0 35.30986667 15.78346667 35.30986666 35.30986667s-15.78346667 35.30986667-35.30986666 35.30986667z"  horiz-adv-x="1024" />

    
    <glyph glyph-name="error" unicode="&#58888;" d="M512 880.128c-274.432 0-497.152-222.72-497.152-497.152s222.72-497.152 497.152-497.152 497.152 222.72 497.152 497.152S786.432 880.128 512 880.128z m212.992-645.632c17.92-17.92 17.92-46.592 0-64.512s-46.592-17.92-64.512 0l-148.48 148.48-148.992-148.992c-17.92-17.92-46.592-17.92-64.512 0s-17.92 46.592 0 64.512l148.992 148.992-148.48 148.992c-17.92 17.92-17.92 46.592 0 64.512s46.592 17.92 64.512 0l148.48-148.992 148.992 148.992c17.92 17.92 46.592 17.92 64.512 0s17.92-46.592 0-64.512l-148.992-148.992 148.48-148.48z"  horiz-adv-x="1024" />

    
    <glyph glyph-name="bed" unicode="&#59467;" d="M963.22072853 287.75136640000005c-15.22570453 35.74640533-36.61962667 68.0806976-63.63381866 96.22352853v306.8936224c0 61.05999893-49.91878613 110.7288256-111.28004694 110.7288256H235.6920448c-61.36016853 0-111.2844128-49.6742848-111.2844128-110.7288256v-306.18413013c0-0.23031253 0.01528107-0.4584416 0.019648-0.68875307-27.01965013-28.148288-48.4233952-60.48913067-63.6534656-96.24426773-16.76148267-39.34953387-25.26338347-81.06004053-25.26338347-123.96358613v-170.5019136c0-14.84912853 11.98277867-26.88320853 26.7685984-26.8832096 1.124272 0 2.23217173 0.07749867 3.32042347 0.21612266H229.616608c14.7803616 0 26.76969067 12.03408107 26.7696896 26.88102614s-11.989328 26.88102613-26.7696896 26.88102506H89.04871893V155.82727680000005H934.9501888v-135.44644587H793.63242133c-14.78691093 0-26.77078187-12.03408107-26.7707808-26.88102506s11.98277867-26.88102613 26.7707808-26.88102614h164.76812587c1.08716053-0.138624 2.1906944-0.21612267 3.31933227-0.21612266 14.78145387 0 26.77078187 12.03408107 26.77078186 26.8832096V163.78778026999998c-0.0010912 42.90354453-8.5019008 84.6140512-25.2699328 123.96358613zM177.94592107 690.86851733c0 31.4108608 25.90629227 56.96568213 57.74503253 56.96568214h552.61590933c31.83874027 0 57.74612373-25.55482133 57.7461248-56.96568214v-261.96311253a319.4832896 319.4832896 0 0 1-30.06282666 17.7842432c0.04038613 0.59269867 0.06658347 1.18976427 0.06658346 1.79228693v103.1569056c0 37.93054933-30.84435947 68.79455573-68.76071893 68.79455574H590.7329056c-37.91635947 0-68.75853547-30.8640064-68.75853547-68.79455574v-68.934272h-11.03424213v68.934272c0 37.93054933-30.84872533 68.79455573-68.7639936 68.79455574H285.61738027c-37.91635947 0-68.766176-30.8640064-68.766176-68.79455574v-100.49794666a318.8502048 318.8502048 0 0 1-38.9052832-22.23658027V690.86851733z m584.5714432-139.2296768v-82.9745792c-30.22546347 9.3238208-61.60139627 14.0403072-93.64097707 14.0403072h-93.36918613v68.934272c0 8.14278827 6.97485547 15.0259552 15.22461333 15.0259552H747.2949344c8.25303253 0.0010912 15.22242987-6.88207573 15.22242987-15.0259552z m-305.11661654 0v-68.934272h-102.2793184c-28.90362453 0-57.26039467-3.85418027-84.7297536-11.44574826v80.38002026c0 8.14278827 6.97485547 15.0259552 15.22570454 15.0259552h156.55875413c8.25412373 0.0010912 15.22461333-6.88207573 15.22461333-15.0259552zM93.02624213 209.59151147c9.32927787 53.12678293 34.84698667 102.18762987 74.13648747 141.36906986 50.4252544 50.28772267 117.17210667 77.97647787 187.95869973 77.97647787h313.75605014c70.78222613 0 137.53562773-27.6887552 187.95979093-77.97647787 39.28404267-39.18143893 64.80284373-88.23682773 74.13648747-141.36906986H93.02624213zM679.33648747 79.96617706999996H344.66351253c-14.78145387 0-26.77078187-12.03408107-26.77078186-26.88102507 0-14.84803627 11.9882368-26.88320853 26.77078186-26.8832096h334.678432c14.78145387 0 26.76532373 12.03408107 26.7653248 26.8832096-0.0010912 14.84694507-11.98387093 26.88102613-26.77078186 26.88102507z"  horiz-adv-x="1024" />

    
    <glyph glyph-name="location" unicode="&#59012;" d="M506.88-108.37333333000004C317.44-108.37333333000004 128-46.93333332999998 128 65.70666667c0 61.44 61.44 117.76 174.08 148.48 20.48 5.12 40.96-5.12 46.08-25.6 5.12-20.48-5.12-40.96-25.6-46.08-81.92-20.48-122.88-56.32-122.88-76.8 0-40.96 122.88-102.4 307.2-102.4s307.2 61.44 307.2 102.4c0 20.48-46.08 56.32-128 81.92-20.48 5.12-30.72 25.6-25.6 46.08 5.12 20.48 25.6 30.72 46.08 25.6 117.76-30.72 184.32-87.04 184.32-153.6 0-117.76-194.56-174.08-384-174.08z m307.2 691.2c0-51.2-15.36-102.4-40.96-148.48l-256-363.52-256 363.52c-25.6 46.08-40.96 92.16-40.96 148.48C220.16 741.54666667 353.28 874.66666667 517.12 874.66666667c163.84 0 296.96-133.12 296.96-291.84zM517.12 470.18666667c61.44 0 112.64 51.2 112.64 107.52 0 61.44-51.2 107.52-112.64 107.52-61.44 0-112.64-51.2-112.64-107.52s51.2-107.52 112.64-107.52z"  horiz-adv-x="1024" />

    
    <glyph glyph-name="guidepost" unicode="&#59269;" d="M515.95851662-107.03064290999998H397.66873998c-15.95049187 0-28.87388274 12.92339086-28.87388273 28.87388273V152.13573802999997H160.04134343c-6.86918997 0-13.50552576 2.44496611-18.7447387 6.9856165l-110.13989035 94.65510684c-6.4034816 5.47206599-10.01271751 13.50552576-10.01271751 21.88826624 0 8.38274048 3.60923477 16.41619911 10.01271751 21.8882651l110.13989035 94.65510684c5.23921294 4.54065038 11.87554873 6.9856165 18.7447387 6.9856165h208.75351382v71.02043705H244.68373277c-15.95049187 0-28.87388274 12.92339086-28.87388274 28.87388274V690.37750727c0 15.95049187 12.92339086 28.87388274 28.87388274 28.87388274h124.227551v71.36971776c0 48.55003591 39.46873401 87.90234339 87.90234453 87.9023434 48.55003591 0 87.90234339-39.46873401 87.9023434-87.9023434v-71.36971776h259.86494236c6.86918997 0 13.50552576-2.44496611 18.74473871-6.9856165l111.30416014-95.58652245c6.4034816-5.47206599 10.01271751-13.50552576 10.01271637-21.88826624s-3.60923477-16.41619911-10.01271637-21.88826511l-111.30416014-95.70295011c-5.23921294-4.54065038-11.87554873-6.9856165-18.74473871-6.9856165H544.7159717v-71.02043705H714.23360455c15.95049187 0 28.87388274-12.92339086 28.87388274-28.8738816v-189.42664135c0-15.95049187-12.92339086-28.87388274-28.87388274-28.87388273H544.7159717v-230.40892474c0-15.71763769-12.80696434-28.64102855-28.75745508-28.64102854z m-89.41589504 57.63133781H487.20106041V181.00962076999997c0 15.95049187 12.92339086 28.87388274 28.87388274 28.8738816h169.40120632V341.56237824000004H515.95851662c-15.95049187 0-28.87388274 12.92339086-28.87388273 28.87388274V499.08803584c0 15.95049187 12.92339086 28.87388274 28.87388273 28.87388274h278.02754503l77.7732005 66.82906624-77.88962702 66.71263971H515.95851662c-15.95049187 0-28.87388274 12.92339086-28.87388273 28.87388274v100.2436005c0 16.76547982-13.62195229 30.27100558-30.27100559 30.27100558-16.76547982 0-30.27100558-13.62195229-30.27100672-30.27100558v-100.2436005c0-15.95049187-12.92339086-28.87388274-28.8738816-28.87388274H273.44118898v-133.65813362h124.227551c15.95049187 0 28.87388274-12.92339086 28.8738816-28.8738816V370.43626098000004c0-15.95049187-12.92339086-28.87388274-28.8738816-28.87388274H170.75262237l-76.60892957-65.89765063 76.60892957-65.89765177h226.91611761c15.95049187 0 28.87388274-12.92339086 28.8738816-28.87388274v-230.2924982z"  horiz-adv-x="1024" />

    
    <glyph glyph-name="poly-select" unicode="&#59106;" d="M152 774v60h120v-60H152z m180 0v60h120v-60H332z m180 0v60h120v-60H512z m180 0v60h120v-60h-120z m180 0v60A90 90 0 0 0 962 744v-35.16h-60V744a30 30 0 0 1-30 30z m30-125.16h60v-120h-60v120z m0-180h60v-120h-60v120z m0-180h60v-120h-60v120z m0-180h60V24c0-18.18-5.4-35.64-15.48-50.4l-49.62 33.6A29.7 29.7 0 0 1 902 24v84.84z m-40.32-114.84v-60h-120v60h120z m-180 0v-60h-120v60h120z m-180 0v-60h-120v60h120z m-180 0v-60h-120v60h120z m-174.84 0.42l-10.2-59.1A90.42 90.42 0 0 0 62.12 20.399999999999977L62 69.36000000000001l60 0.12v-47.28a30 30 0 0 1 24.84-27.78z m-24.84 135h-60v120h60v-120z m0 180h-60v120h60v-120z m0 180h-60v120h60v-120zM62 684H32V804a60 60 0 0 0 60 60h120v-180H122v-14.58h-60V684zM812 864h120a60 60 0 0 0 60-60v-120h-180V864z m0-780h180v-120a60 60 0 0 0-60-60h-120v180zM32 84h180v-180H92a60 60 0 0 0-60 60v120z m599.4 295.44a332.88 332.88 0 0 1-33.72-1.08 599.22 599.22 0 0 1-34.2-3.54c-12.78-1.62-25.8-4.2-39.12-7.68l51.6-85.32a34.62 34.62 0 0 0 2.4-27.18 34.8 34.8 0 0 0-17.52-20.88 31.98 31.98 0 0 0-13.32-4.08 35.1 35.1 0 0 0-25.44 8.1 34.8 34.8 0 0 0-9 11.04l-43.2 95.82a242.52 242.52 0 0 1-31.74-21.78 328.8 328.8 0 0 1-24.36-21.78c-7.98-7.68-15-15.54-21.06-23.52L392 564l239.4-184.56z"  horiz-adv-x="1024" />

    
    <glyph glyph-name="close" unicode="&#58908;" d="M583.168 393.55733333L958.464 768.8533333299999c18.944 18.944 18.944 50.176 0 69.12l-2.048 2.048c-18.944 18.944-50.176 18.944-69.12 0L512 464.21333333 136.704 840.02133333c-18.944 18.944-50.176 18.944-69.12 0l-2.048-2.048c-19.456-18.944-19.456-50.176 0-69.12l375.296-375.296L65.536 18.261333329999957c-18.944-18.944-18.944-50.176 0-69.12l2.048-2.048c18.944-18.944 50.176-18.944 69.12 0L512 322.38933333 887.296-52.90666667000005c18.944-18.944 50.176-18.944 69.12 0l2.048 2.048c18.944 18.944 18.944 50.176 0 69.12L583.168 393.55733333z"  horiz-adv-x="1024" />

    


  </font>
</defs>
</svg>
